<svg width="22" height="22" viewBox="0 0 58 52" fill="none" xmlns="http://www.w3.org/2000/svg">
<path d="M50.0777 32.6323L29.6321 15.3592C29.2854 15.0663 28.7254 15.0663 28.3787 15.3592L7.92421 32.6323C7.58644 32.9327 7.59527 33.4059 7.94196 33.6912C8.28865 33.9691 8.83093 33.9691 9.17761 33.6912L29.001 16.9514L48.8155 33.6912C49.1711 33.9766 49.7311 33.9691 50.0689 33.6762C50.4066 33.3833 50.4066 32.9252 50.0777 32.6323Z" fill="#ef4444" stroke="#991b1b" stroke-width="7.15294" stroke-linecap="round" stroke-linejoin="round"/>
<path d="M50.0777 32.6323L29.6321 15.3592C29.2854 15.0663 28.7254 15.0663 28.3787 15.3592L7.92421 32.6323C7.58644 32.9327 7.59527 33.4059 7.94196 33.6912C8.28865 33.9691 8.83093 33.9691 9.17761 33.6912L29.001 16.9514L48.8155 33.6912C49.1711 33.9766 49.7311 33.9691 50.0689 33.6762C50.4066 33.3833 50.4066 32.9252 50.0777 32.6323Z" fill="#ef4444" stroke="#ef4444" stroke-width="3.48235"/>
<path d="M42.8095 41.6321L29.4142 30.7042C29.187 30.5189 28.8201 30.5189 28.593 30.7042L15.1917 41.6321C14.9704 41.8221 14.9762 42.1215 15.2034 42.302C15.4305 42.4778 15.7858 42.4778 16.0129 42.302L29.0007 31.7115L41.9826 42.302C42.2155 42.4825 42.5825 42.4778 42.8038 42.2925C43.025 42.1072 43.025 41.8174 42.8095 41.6321Z" fill="#ef4444" stroke="#991b1b" stroke-width="7.15294" stroke-linecap="round" stroke-linejoin="round"/>
<path d="M42.8095 41.6321L29.4142 30.7042C29.187 30.5189 28.8201 30.5189 28.593 30.7042L15.1917 41.6321C14.9704 41.8221 14.9762 42.1215 15.2034 42.302C15.4305 42.4778 15.7858 42.4778 16.0129 42.302L29.0007 31.7115L41.9826 42.302C42.2155 42.4825 42.5825 42.4778 42.8038 42.2925C43.025 42.1072 43.025 41.8174 42.8095 41.6321Z" fill="#ef4444" stroke="#ef4444" stroke-width="3.48235"/>
</svg>
