<svg viewBox="0 0 169 19" fill="none" xmlns="http://www.w3.org/2000/svg">
<mask id="path-1-outside-1_0_1" maskUnits="userSpaceOnUse" x="0.144279" y="0.0384827" width="169" height="19" fill="black">
<rect fill="white" x="0.144279" y="0.0384827" width="169" height="19"/>
<path d="M9.96428 17.0385H1.34428V2.03848H9.12428C10.5643 2.03848 11.5909 2.31848 12.2043 2.87848C12.8176 3.43848 13.1243 4.25182 13.1243 5.31848C13.1243 6.39848 12.9309 7.23182 12.5443 7.81848C12.1576 8.39182 11.6309 8.77182 10.9643 8.95848V9.09848C12.8976 9.43182 13.8643 10.7518 13.8643 13.0585C13.8643 14.2585 13.5443 15.2251 12.9043 15.9585C12.2776 16.6785 11.2976 17.0385 9.96428 17.0385ZM8.02428 11.0585H6.14428V13.5185H7.98428C8.66428 13.5185 9.00428 13.1051 9.00428 12.2785C9.00428 11.4651 8.67761 11.0585 8.02428 11.0585ZM7.66428 5.31848H6.14428V7.55848H7.62428C8.23761 7.55848 8.54428 7.18515 8.54428 6.43848C8.54428 5.69182 8.25095 5.31848 7.66428 5.31848ZM26.0235 12.0385L28.6235 17.0385H23.3435L21.3835 12.5785H20.3435V17.0385H15.5435V2.03848H23.1035C26.5435 2.03848 28.2635 3.79182 28.2635 7.29848C28.2635 9.69848 27.5168 11.2785 26.0235 12.0385ZM21.4435 5.87848H20.3435V8.87848H21.4435C22.0302 8.87848 22.4502 8.81848 22.7035 8.69848C22.9702 8.57848 23.1035 8.30515 23.1035 7.87848V6.87848C23.1035 6.45182 22.9702 6.17848 22.7035 6.05848C22.4502 5.93848 22.0302 5.87848 21.4435 5.87848ZM34.4291 14.6585L33.8891 17.0385H28.8291L32.7091 2.03848H40.1291L44.0091 17.0385H38.9491L38.3891 14.6585H34.4291ZM36.5491 6.63848H36.2891L35.3091 10.8385H37.5091L36.5491 6.63848ZM57.278 10.4185L58.418 2.03848H63.438L61.098 17.0385H54.818L53.718 11.5185H53.438L52.358 17.0385H46.098L43.738 2.03848H48.758L49.878 10.4185H50.018L51.758 2.03848H55.418L57.138 10.4185H57.278ZM74.2451 13.1985V17.0385H64.6451V2.03848H69.4451V13.1985H74.2451Z"/>
<path d="M108.427 7.89848V11.4785H104.347V17.0385H99.5474V2.03848H109.387L108.787 5.87848H104.347V7.89848H108.427ZM110.116 9.55848C110.116 8.18515 110.23 7.00515 110.456 6.01848C110.696 5.01848 111.09 4.19848 111.636 3.55848C112.196 2.91848 112.93 2.44515 113.836 2.13848C114.743 1.83182 115.863 1.67848 117.196 1.67848C118.543 1.67848 119.663 1.83182 120.556 2.13848C121.463 2.44515 122.19 2.91848 122.736 3.55848C123.296 4.19848 123.69 5.01848 123.916 6.01848C124.156 7.00515 124.276 8.18515 124.276 9.55848C124.276 10.8651 124.17 12.0118 123.956 12.9985C123.743 13.9718 123.363 14.7851 122.816 15.4385C122.283 16.0918 121.556 16.5851 120.636 16.9185C119.73 17.2385 118.583 17.3985 117.196 17.3985C115.81 17.3985 114.656 17.2385 113.736 16.9185C112.83 16.5851 112.103 16.0918 111.556 15.4385C111.023 14.7851 110.65 13.9718 110.436 12.9985C110.223 12.0118 110.116 10.8651 110.116 9.55848ZM115.276 7.05848V13.2985H117.276C117.943 13.2985 118.416 13.2251 118.696 13.0785C118.99 12.9185 119.136 12.5651 119.136 12.0185V5.77848H117.116C116.476 5.77848 116.01 5.85848 115.716 6.01848C115.423 6.16515 115.276 6.51182 115.276 7.05848ZM125.594 2.03848H130.394V13.2985H132.094C132.707 13.2985 133.12 13.2185 133.334 13.0585C133.56 12.8985 133.674 12.5518 133.674 12.0185V2.03848H138.474V10.4585C138.474 11.7385 138.387 12.8185 138.214 13.6985C138.054 14.5785 137.734 15.2985 137.254 15.8585C136.787 16.4051 136.134 16.7985 135.294 17.0385C134.454 17.2785 133.367 17.3985 132.034 17.3985C130.7 17.3985 129.614 17.2785 128.774 17.0385C127.934 16.7985 127.274 16.4051 126.794 15.8585C126.327 15.3118 126.007 14.5985 125.834 13.7185C125.674 12.8251 125.594 11.7385 125.594 10.4585V2.03848ZM150.984 12.0385L153.584 17.0385H148.304L146.344 12.5785H145.304V17.0385H140.504V2.03848H148.064C151.504 2.03848 153.224 3.79182 153.224 7.29848C153.224 9.69848 152.478 11.2785 150.984 12.0385ZM146.404 5.87848H145.304V8.87848H146.404C146.991 8.87848 147.411 8.81848 147.664 8.69848C147.931 8.57848 148.064 8.30515 148.064 7.87848V6.87848C148.064 6.45182 147.931 6.17848 147.664 6.05848C147.411 5.93848 146.991 5.87848 146.404 5.87848ZM154.67 16.7785L155.35 12.8185C156.817 13.1785 158.143 13.3585 159.33 13.3585C159.93 13.3585 160.457 13.3518 160.91 13.3385C161.377 13.3118 161.79 13.2718 162.15 13.2185V12.0185L159.99 11.8385C159.017 11.7451 158.203 11.5851 157.55 11.3585C156.897 11.1318 156.37 10.8251 155.97 10.4385C155.583 10.0385 155.303 9.56515 155.13 9.01848C154.97 8.45848 154.89 7.80515 154.89 7.05848C154.89 6.03182 154.997 5.17848 155.21 4.49848C155.423 3.80515 155.763 3.25182 156.23 2.83848C156.697 2.41182 157.297 2.11182 158.03 1.93848C158.777 1.76515 159.683 1.67848 160.75 1.67848C162.87 1.67848 164.79 1.87848 166.51 2.27848L165.91 6.11848C164.417 5.87848 163.223 5.75848 162.33 5.75848C161.437 5.75848 160.677 5.79848 160.05 5.87848V7.05848L161.77 7.21848C162.823 7.32515 163.703 7.50515 164.41 7.75848C165.117 7.99848 165.683 8.31848 166.11 8.71848C166.55 9.11848 166.857 9.59182 167.03 10.1385C167.217 10.6851 167.31 11.3118 167.31 12.0185C167.31 13.0318 167.177 13.8851 166.91 14.5785C166.643 15.2718 166.323 15.7985 165.95 16.1585C165.643 16.4518 165.263 16.6851 164.81 16.8585C164.357 17.0185 163.877 17.1385 163.37 17.2185C162.863 17.2985 162.35 17.3451 161.83 17.3585C161.323 17.3851 160.863 17.3985 160.45 17.3985C159.41 17.3985 158.41 17.3451 157.45 17.2385C156.49 17.1318 155.563 16.9785 154.67 16.7785Z"/>
</mask>
<path d="M9.96428 17.0385H1.34428V2.03848H9.12428C10.5643 2.03848 11.5909 2.31848 12.2043 2.87848C12.8176 3.43848 13.1243 4.25182 13.1243 5.31848C13.1243 6.39848 12.9309 7.23182 12.5443 7.81848C12.1576 8.39182 11.6309 8.77182 10.9643 8.95848V9.09848C12.8976 9.43182 13.8643 10.7518 13.8643 13.0585C13.8643 14.2585 13.5443 15.2251 12.9043 15.9585C12.2776 16.6785 11.2976 17.0385 9.96428 17.0385ZM8.02428 11.0585H6.14428V13.5185H7.98428C8.66428 13.5185 9.00428 13.1051 9.00428 12.2785C9.00428 11.4651 8.67761 11.0585 8.02428 11.0585ZM7.66428 5.31848H6.14428V7.55848H7.62428C8.23761 7.55848 8.54428 7.18515 8.54428 6.43848C8.54428 5.69182 8.25095 5.31848 7.66428 5.31848ZM26.0235 12.0385L28.6235 17.0385H23.3435L21.3835 12.5785H20.3435V17.0385H15.5435V2.03848H23.1035C26.5435 2.03848 28.2635 3.79182 28.2635 7.29848C28.2635 9.69848 27.5168 11.2785 26.0235 12.0385ZM21.4435 5.87848H20.3435V8.87848H21.4435C22.0302 8.87848 22.4502 8.81848 22.7035 8.69848C22.9702 8.57848 23.1035 8.30515 23.1035 7.87848V6.87848C23.1035 6.45182 22.9702 6.17848 22.7035 6.05848C22.4502 5.93848 22.0302 5.87848 21.4435 5.87848ZM34.4291 14.6585L33.8891 17.0385H28.8291L32.7091 2.03848H40.1291L44.0091 17.0385H38.9491L38.3891 14.6585H34.4291ZM36.5491 6.63848H36.2891L35.3091 10.8385H37.5091L36.5491 6.63848ZM57.278 10.4185L58.418 2.03848H63.438L61.098 17.0385H54.818L53.718 11.5185H53.438L52.358 17.0385H46.098L43.738 2.03848H48.758L49.878 10.4185H50.018L51.758 2.03848H55.418L57.138 10.4185H57.278ZM74.2451 13.1985V17.0385H64.6451V2.03848H69.4451V13.1985H74.2451Z" fill="black"/>
<path d="M108.427 7.89848V11.4785H104.347V17.0385H99.5474V2.03848H109.387L108.787 5.87848H104.347V7.89848H108.427ZM110.116 9.55848C110.116 8.18515 110.23 7.00515 110.456 6.01848C110.696 5.01848 111.09 4.19848 111.636 3.55848C112.196 2.91848 112.93 2.44515 113.836 2.13848C114.743 1.83182 115.863 1.67848 117.196 1.67848C118.543 1.67848 119.663 1.83182 120.556 2.13848C121.463 2.44515 122.19 2.91848 122.736 3.55848C123.296 4.19848 123.69 5.01848 123.916 6.01848C124.156 7.00515 124.276 8.18515 124.276 9.55848C124.276 10.8651 124.17 12.0118 123.956 12.9985C123.743 13.9718 123.363 14.7851 122.816 15.4385C122.283 16.0918 121.556 16.5851 120.636 16.9185C119.73 17.2385 118.583 17.3985 117.196 17.3985C115.81 17.3985 114.656 17.2385 113.736 16.9185C112.83 16.5851 112.103 16.0918 111.556 15.4385C111.023 14.7851 110.65 13.9718 110.436 12.9985C110.223 12.0118 110.116 10.8651 110.116 9.55848ZM115.276 7.05848V13.2985H117.276C117.943 13.2985 118.416 13.2251 118.696 13.0785C118.99 12.9185 119.136 12.5651 119.136 12.0185V5.77848H117.116C116.476 5.77848 116.01 5.85848 115.716 6.01848C115.423 6.16515 115.276 6.51182 115.276 7.05848ZM125.594 2.03848H130.394V13.2985H132.094C132.707 13.2985 133.12 13.2185 133.334 13.0585C133.56 12.8985 133.674 12.5518 133.674 12.0185V2.03848H138.474V10.4585C138.474 11.7385 138.387 12.8185 138.214 13.6985C138.054 14.5785 137.734 15.2985 137.254 15.8585C136.787 16.4051 136.134 16.7985 135.294 17.0385C134.454 17.2785 133.367 17.3985 132.034 17.3985C130.7 17.3985 129.614 17.2785 128.774 17.0385C127.934 16.7985 127.274 16.4051 126.794 15.8585C126.327 15.3118 126.007 14.5985 125.834 13.7185C125.674 12.8251 125.594 11.7385 125.594 10.4585V2.03848ZM150.984 12.0385L153.584 17.0385H148.304L146.344 12.5785H145.304V17.0385H140.504V2.03848H148.064C151.504 2.03848 153.224 3.79182 153.224 7.29848C153.224 9.69848 152.478 11.2785 150.984 12.0385ZM146.404 5.87848H145.304V8.87848H146.404C146.991 8.87848 147.411 8.81848 147.664 8.69848C147.931 8.57848 148.064 8.30515 148.064 7.87848V6.87848C148.064 6.45182 147.931 6.17848 147.664 6.05848C147.411 5.93848 146.991 5.87848 146.404 5.87848ZM154.67 16.7785L155.35 12.8185C156.817 13.1785 158.143 13.3585 159.33 13.3585C159.93 13.3585 160.457 13.3518 160.91 13.3385C161.377 13.3118 161.79 13.2718 162.15 13.2185V12.0185L159.99 11.8385C159.017 11.7451 158.203 11.5851 157.55 11.3585C156.897 11.1318 156.37 10.8251 155.97 10.4385C155.583 10.0385 155.303 9.56515 155.13 9.01848C154.97 8.45848 154.89 7.80515 154.89 7.05848C154.89 6.03182 154.997 5.17848 155.21 4.49848C155.423 3.80515 155.763 3.25182 156.23 2.83848C156.697 2.41182 157.297 2.11182 158.03 1.93848C158.777 1.76515 159.683 1.67848 160.75 1.67848C162.87 1.67848 164.79 1.87848 166.51 2.27848L165.91 6.11848C164.417 5.87848 163.223 5.75848 162.33 5.75848C161.437 5.75848 160.677 5.79848 160.05 5.87848V7.05848L161.77 7.21848C162.823 7.32515 163.703 7.50515 164.41 7.75848C165.117 7.99848 165.683 8.31848 166.11 8.71848C166.55 9.11848 166.857 9.59182 167.03 10.1385C167.217 10.6851 167.31 11.3118 167.31 12.0185C167.31 13.0318 167.177 13.8851 166.91 14.5785C166.643 15.2718 166.323 15.7985 165.95 16.1585C165.643 16.4518 165.263 16.6851 164.81 16.8585C164.357 17.0185 163.877 17.1385 163.37 17.2185C162.863 17.2985 162.35 17.3451 161.83 17.3585C161.323 17.3851 160.863 17.3985 160.45 17.3985C159.41 17.3985 158.41 17.3451 157.45 17.2385C156.49 17.1318 155.563 16.9785 154.67 16.7785Z" fill="#E52828"/>
<path d="M1.34428 17.0385H0.34428V18.0385H1.34428V17.0385ZM1.34428 2.03848V1.03848H0.34428V2.03848H1.34428ZM12.2043 2.87848L11.53 3.61697L11.53 3.61697L12.2043 2.87848ZM12.5443 7.81848L13.3734 8.37765L13.3792 8.3688L12.5443 7.81848ZM10.9643 8.95848L10.6946 7.99552L9.96428 8.20002V8.95848H10.9643ZM10.9643 9.09848H9.96428V9.94082L10.7944 10.0839L10.9643 9.09848ZM12.9043 15.9585L12.1509 15.3009L12.15 15.302L12.9043 15.9585ZM6.14428 11.0585V10.0585H5.14428V11.0585H6.14428ZM6.14428 13.5185H5.14428V14.5185H6.14428V13.5185ZM6.14428 5.31848V4.31848H5.14428V5.31848H6.14428ZM6.14428 7.55848H5.14428V8.55848H6.14428V7.55848ZM9.96428 17.0385V16.0385H1.34428V17.0385V18.0385H9.96428V17.0385ZM1.34428 17.0385H2.34428V2.03848H1.34428H0.34428V17.0385H1.34428ZM1.34428 2.03848V3.03848H9.12428V2.03848V1.03848H1.34428V2.03848ZM9.12428 2.03848V3.03848C10.4827 3.03848 11.1957 3.31169 11.53 3.61697L12.2043 2.87848L12.8786 2.14C11.9862 1.32527 10.6459 1.03848 9.12428 1.03848V2.03848ZM12.2043 2.87848L11.53 3.61697C11.8805 3.93699 12.1243 4.44796 12.1243 5.31848H13.1243H14.1243C14.1243 4.05567 13.7547 2.93998 12.8785 2.14L12.2043 2.87848ZM13.1243 5.31848H12.1243C12.1243 6.30037 11.9449 6.9107 11.7093 7.26817L12.5443 7.81848L13.3792 8.3688C13.917 7.55293 14.1243 6.49659 14.1243 5.31848H13.1243ZM12.5443 7.81848L11.7152 7.25934C11.4614 7.63572 11.1331 7.87275 10.6946 7.99552L10.9643 8.95848L11.2339 9.92145C12.1288 9.67088 12.8539 9.14791 13.3734 8.37762L12.5443 7.81848ZM10.9643 8.95848H9.96428V9.09848H10.9643H11.9643V8.95848H10.9643ZM10.9643 9.09848L10.7944 10.0839C11.5598 10.2159 12.0319 10.5189 12.3325 10.9293C12.6482 11.3604 12.8643 12.0331 12.8643 13.0585H13.8643H14.8643C14.8643 11.7772 14.5971 10.6366 13.9461 9.74765C13.28 8.83805 12.3021 8.31439 11.1342 8.11302L10.9643 9.09848ZM13.8643 13.0585H12.8643C12.8643 14.0753 12.5972 14.7895 12.1509 15.3009L12.9043 15.9585L13.6577 16.616C14.4914 15.6608 14.8643 14.4417 14.8643 13.0585H13.8643ZM12.9043 15.9585L12.15 15.302C11.7796 15.7275 11.1276 16.0385 9.96428 16.0385V17.0385V18.0385C11.4676 18.0385 12.7757 17.6294 13.6586 16.615L12.9043 15.9585ZM8.02428 11.0585V10.0585H6.14428V11.0585V12.0585H8.02428V11.0585ZM6.14428 11.0585H5.14428V13.5185H6.14428H7.14428V11.0585H6.14428ZM6.14428 13.5185V14.5185H7.98428V13.5185V12.5185H6.14428V13.5185ZM7.98428 13.5185V14.5185C8.53552 14.5185 9.11212 14.3415 9.52157 13.8438C9.90026 13.3834 10.0043 12.8036 10.0043 12.2785H9.00428H8.00428C8.00428 12.4199 7.98939 12.5082 7.97613 12.5565C7.96349 12.6026 7.95644 12.5982 7.97699 12.5732C8.00093 12.5441 8.03252 12.5233 8.05497 12.5142C8.07128 12.5076 8.05493 12.5185 7.98428 12.5185V13.5185ZM9.00428 12.2785H10.0043C10.0043 11.7643 9.90533 11.1934 9.5389 10.7372C9.13885 10.2392 8.57024 10.0585 8.02428 10.0585V11.0585V12.0585C8.08563 12.0585 8.09335 12.0682 8.06975 12.0584C8.04004 12.046 8.00492 12.0212 7.97966 11.9897C7.95806 11.9628 7.96474 11.9574 7.97706 12.0034C7.98991 12.0514 8.00428 12.1388 8.00428 12.2785H9.00428ZM7.66428 5.31848V4.31848H6.14428V5.31848V6.31848H7.66428V5.31848ZM6.14428 5.31848H5.14428V7.55848H6.14428H7.14428V5.31848H6.14428ZM6.14428 7.55848V8.55848H7.62428V7.55848V6.55848H6.14428V7.55848ZM7.62428 7.55848V8.55848C8.14265 8.55848 8.69438 8.3912 9.08701 7.91322C9.4487 7.4729 9.54428 6.92339 9.54428 6.43848H8.54428H7.54428C7.54428 6.55997 7.53145 6.6309 7.52228 6.66439C7.51373 6.69561 7.5128 6.67875 7.54155 6.64374C7.55571 6.62651 7.57378 6.60901 7.59506 6.59346C7.61624 6.578 7.63585 6.56792 7.65076 6.56187C7.67971 6.55012 7.67811 6.55848 7.62428 6.55848V7.55848ZM8.54428 6.43848H9.54428C9.54428 5.96141 9.45517 5.4192 9.1106 4.98066C8.72995 4.4962 8.18463 4.31848 7.66428 4.31848V5.31848V6.31848C7.70644 6.31848 7.69694 6.32527 7.65873 6.30906C7.63941 6.30087 7.61671 6.28839 7.59362 6.27075C7.57049 6.25309 7.55187 6.23401 7.53796 6.2163C7.51018 6.18095 7.51254 6.16607 7.52191 6.20184C7.53171 6.23928 7.54428 6.31402 7.54428 6.43848H8.54428ZM26.0235 12.0385L25.5699 11.1473L24.6709 11.6048L25.1363 12.4998L26.0235 12.0385ZM28.6235 17.0385V18.0385H30.2706L29.5107 16.5771L28.6235 17.0385ZM23.3435 17.0385L22.428 17.4408L22.6907 18.0385H23.3435V17.0385ZM21.3835 12.5785L22.299 12.1762L22.0363 11.5785H21.3835V12.5785ZM20.3435 12.5785V11.5785H19.3435V12.5785H20.3435ZM20.3435 17.0385V18.0385H21.3435V17.0385H20.3435ZM15.5435 17.0385H14.5435V18.0385H15.5435V17.0385ZM15.5435 2.03848V1.03848H14.5435V2.03848H15.5435ZM20.3435 5.87848V4.87848H19.3435V5.87848H20.3435ZM20.3435 8.87848H19.3435V9.87848H20.3435V8.87848ZM22.7035 8.69848L22.2931 7.78656L22.2842 7.79057L22.2754 7.79474L22.7035 8.69848ZM22.7035 6.05848L22.2754 6.96222L22.2842 6.9664L22.2931 6.9704L22.7035 6.05848ZM26.0235 12.0385L25.1363 12.4998L27.7363 17.4998L28.6235 17.0385L29.5107 16.5771L26.9107 11.5771L26.0235 12.0385ZM28.6235 17.0385V16.0385H23.3435V17.0385V18.0385H28.6235V17.0385ZM23.3435 17.0385L24.259 16.6362L22.299 12.1762L21.3835 12.5785L20.468 12.9808L22.428 17.4408L23.3435 17.0385ZM21.3835 12.5785V11.5785H20.3435V12.5785V13.5785H21.3835V12.5785ZM20.3435 12.5785H19.3435V17.0385H20.3435H21.3435V12.5785H20.3435ZM20.3435 17.0385V16.0385H15.5435V17.0385V18.0385H20.3435V17.0385ZM15.5435 17.0385H16.5435V2.03848H15.5435H14.5435V17.0385H15.5435ZM15.5435 2.03848V3.03848H23.1035V2.03848V1.03848H15.5435V2.03848ZM23.1035 2.03848V3.03848C24.6644 3.03848 25.6526 3.43494 26.2596 4.05377C26.8702 4.67615 27.2635 5.69452 27.2635 7.29848H28.2635H29.2635C29.2635 5.39578 28.7968 3.78415 27.6874 2.65319C26.5744 1.51869 24.9826 1.03848 23.1035 1.03848V2.03848ZM28.2635 7.29848H27.2635C27.2635 9.50672 26.5904 10.6279 25.5699 11.1473L26.0235 12.0385L26.4771 12.9297C28.4433 11.929 29.2635 9.89024 29.2635 7.29848H28.2635ZM21.4435 5.87848V4.87848H20.3435V5.87848V6.87848H21.4435V5.87848ZM20.3435 5.87848H19.3435V8.87848H20.3435H21.3435V5.87848H20.3435ZM20.3435 8.87848V9.87848H21.4435V8.87848V7.87848H20.3435V8.87848ZM21.4435 8.87848V9.87848C22.0509 9.87848 22.6639 9.82377 23.1316 9.60222L22.7035 8.69848L22.2754 7.79474C22.278 7.79354 22.2632 7.80067 22.224 7.81116C22.1854 7.82146 22.1308 7.833 22.0571 7.84353C21.9078 7.86486 21.706 7.87848 21.4435 7.87848V8.87848ZM22.7035 8.69848L23.1139 9.6104C23.8968 9.2581 24.1035 8.49069 24.1035 7.87848H23.1035H22.1035C22.1035 7.99726 22.0835 8.00854 22.1047 7.96506C22.117 7.9399 22.1398 7.90363 22.1774 7.86671C22.2153 7.82939 22.2565 7.80304 22.2931 7.78656L22.7035 8.69848ZM23.1035 7.87848H24.1035V6.87848H23.1035H22.1035V7.87848H23.1035ZM23.1035 6.87848H24.1035C24.1035 6.26628 23.8968 5.49886 23.1139 5.14656L22.7035 6.05848L22.2931 6.9704C22.2565 6.95393 22.2153 6.92757 22.1774 6.89026C22.1398 6.85333 22.117 6.81706 22.1047 6.79191C22.0835 6.74842 22.1035 6.7597 22.1035 6.87848H23.1035ZM22.7035 6.05848L23.1316 5.15474C22.6639 4.9332 22.0509 4.87848 21.4435 4.87848V5.87848V6.87848C21.706 6.87848 21.9078 6.89211 22.0571 6.91343C22.1308 6.92397 22.1854 6.9355 22.224 6.94581C22.2632 6.95629 22.278 6.96343 22.2754 6.96222L22.7035 6.05848ZM34.4291 14.6585V13.6585H33.6306L33.4539 14.4372L34.4291 14.6585ZM33.8891 17.0385V18.0385H34.6876L34.8643 17.2597L33.8891 17.0385ZM28.8291 17.0385L27.861 16.7881L27.5375 18.0385H28.8291V17.0385ZM32.7091 2.03848V1.03848H31.9349L31.741 1.78806L32.7091 2.03848ZM40.1291 2.03848L41.0973 1.78806L40.9034 1.03848H40.1291V2.03848ZM44.0091 17.0385V18.0385H45.3007L44.9773 16.7881L44.0091 17.0385ZM38.9491 17.0385L37.9757 17.2675L38.1571 18.0385H38.9491V17.0385ZM38.3891 14.6585L39.3625 14.4294L39.1811 13.6585H38.3891V14.6585ZM36.5491 6.63848L37.524 6.41566L37.3463 5.63848H36.5491V6.63848ZM36.2891 6.63848V5.63848H35.4956L35.3153 6.41125L36.2891 6.63848ZM35.3091 10.8385L34.3353 10.6113L34.0489 11.8385H35.3091V10.8385ZM37.5091 10.8385V11.8385H38.7635L38.484 10.6157L37.5091 10.8385ZM34.4291 14.6585L33.4539 14.4372L32.9139 16.8172L33.8891 17.0385L34.8643 17.2597L35.4043 14.8797L34.4291 14.6585ZM33.8891 17.0385V16.0385H28.8291V17.0385V18.0385H33.8891V17.0385ZM28.8291 17.0385L29.7973 17.2889L33.6773 2.28891L32.7091 2.03848L31.741 1.78806L27.861 16.7881L28.8291 17.0385ZM32.7091 2.03848V3.03848H40.1291V2.03848V1.03848H32.7091V2.03848ZM40.1291 2.03848L39.161 2.28891L43.041 17.2889L44.0091 17.0385L44.9773 16.7881L41.0973 1.78806L40.1291 2.03848ZM44.0091 17.0385V16.0385H38.9491V17.0385V18.0385H44.0091V17.0385ZM38.9491 17.0385L39.9225 16.8094L39.3625 14.4294L38.3891 14.6585L37.4157 14.8875L37.9757 17.2675L38.9491 17.0385ZM38.3891 14.6585V13.6585H34.4291V14.6585V15.6585H38.3891V14.6585ZM36.5491 6.63848V5.63848H36.2891V6.63848V7.63848H36.5491V6.63848ZM36.2891 6.63848L35.3153 6.41125L34.3353 10.6113L35.3091 10.8385L36.283 11.0657L37.263 6.86571L36.2891 6.63848ZM35.3091 10.8385V11.8385H37.5091V10.8385V9.83848H35.3091V10.8385ZM37.5091 10.8385L38.484 10.6157L37.524 6.41566L36.5491 6.63848L35.5743 6.86131L36.5343 11.0613L37.5091 10.8385ZM57.278 10.4185V11.4185H58.1512L58.2689 10.5533L57.278 10.4185ZM58.418 2.03848V1.03848H57.5449L57.4272 1.90368L58.418 2.03848ZM63.438 2.03848L64.4261 2.19262L64.6061 1.03848H63.438V2.03848ZM61.098 17.0385V18.0385H61.9541L62.0861 17.1926L61.098 17.0385ZM54.818 17.0385L53.8373 17.2339L53.9976 18.0385H54.818V17.0385ZM53.718 11.5185L54.6987 11.323L54.5384 10.5185H53.718V11.5185ZM53.438 11.5185V10.5185H52.6147L52.4566 11.3265L53.438 11.5185ZM52.358 17.0385V18.0385H53.1813L53.3394 17.2305L52.358 17.0385ZM46.098 17.0385L45.1102 17.1939L45.2431 18.0385H46.098V17.0385ZM43.738 2.03848V1.03848H42.5684L42.7502 2.1939L43.738 2.03848ZM48.758 2.03848L49.7492 1.90601L49.6333 1.03848H48.758V2.03848ZM49.878 10.4185L48.8868 10.551L49.0028 11.4185H49.878V10.4185ZM50.018 10.4185V11.4185H50.8317L50.9971 10.6218L50.018 10.4185ZM51.758 2.03848V1.03848H50.9443L50.7789 1.83518L51.758 2.03848ZM55.418 2.03848L56.3976 1.83742L56.2336 1.03848H55.418V2.03848ZM57.138 10.4185L56.1585 10.6195L56.3224 11.4185H57.138V10.4185ZM57.278 10.4185L58.2689 10.5533L59.4089 2.17328L58.418 2.03848L57.4272 1.90368L56.2872 10.2837L57.278 10.4185ZM58.418 2.03848V3.03848H63.438V2.03848V1.03848H58.418V2.03848ZM63.438 2.03848L62.45 1.88435L60.11 16.8843L61.098 17.0385L62.0861 17.1926L64.4261 2.19262L63.438 2.03848ZM61.098 17.0385V16.0385H54.818V17.0385V18.0385H61.098V17.0385ZM54.818 17.0385L55.7987 16.843L54.6987 11.323L53.718 11.5185L52.7373 11.7139L53.8373 17.2339L54.818 17.0385ZM53.718 11.5185V10.5185H53.438V11.5185V12.5185H53.718V11.5185ZM53.438 11.5185L52.4566 11.3265L51.3766 16.8465L52.358 17.0385L53.3394 17.2305L54.4194 11.7105L53.438 11.5185ZM52.358 17.0385V16.0385H46.098V17.0385V18.0385H52.358V17.0385ZM46.098 17.0385L47.0859 16.8831L44.7259 1.88306L43.738 2.03848L42.7502 2.1939L45.1102 17.1939L46.098 17.0385ZM43.738 2.03848V3.03848H48.758V2.03848V1.03848H43.738V2.03848ZM48.758 2.03848L47.7668 2.17096L48.8868 10.551L49.878 10.4185L50.8692 10.286L49.7492 1.90601L48.758 2.03848ZM49.878 10.4185V11.4185H50.018V10.4185V9.41848H49.878V10.4185ZM50.018 10.4185L50.9971 10.6218L52.7371 2.24178L51.758 2.03848L50.7789 1.83518L49.0389 10.2152L50.018 10.4185ZM51.758 2.03848V3.03848H55.418V2.03848V1.03848H51.758V2.03848ZM55.418 2.03848L54.4385 2.23954L56.1585 10.6195L57.138 10.4185L58.1176 10.2174L56.3976 1.83742L55.418 2.03848ZM57.138 10.4185V11.4185H57.278V10.4185V9.41848H57.138V10.4185ZM74.2451 13.1985H75.2451V12.1985H74.2451V13.1985ZM74.2451 17.0385V18.0385H75.2451V17.0385H74.2451ZM64.6451 17.0385H63.6451V18.0385H64.6451V17.0385ZM64.6451 2.03848V1.03848H63.6451V2.03848H64.6451ZM69.4451 2.03848H70.4451V1.03848H69.4451V2.03848ZM69.4451 13.1985H68.4451V14.1985H69.4451V13.1985ZM74.2451 13.1985H73.2451V17.0385H74.2451H75.2451V13.1985H74.2451ZM74.2451 17.0385V16.0385H64.6451V17.0385V18.0385H74.2451V17.0385ZM64.6451 17.0385H65.6451V2.03848H64.6451H63.6451V17.0385H64.6451ZM64.6451 2.03848V3.03848H69.4451V2.03848V1.03848H64.6451V2.03848ZM69.4451 2.03848H68.4451V13.1985H69.4451H70.4451V2.03848H69.4451ZM69.4451 13.1985V14.1985H74.2451V13.1985V12.1985H69.4451V13.1985ZM108.427 7.89848H109.427V6.89848H108.427V7.89848ZM108.427 11.4785V12.4785H109.427V11.4785H108.427ZM104.347 11.4785V10.4785H103.347V11.4785H104.347ZM104.347 17.0385V18.0385H105.347V17.0385H104.347ZM99.5474 17.0385H98.5474V18.0385H99.5474V17.0385ZM99.5474 2.03848V1.03848H98.5474V2.03848H99.5474ZM109.387 2.03848L110.375 2.19286L110.556 1.03848H109.387V2.03848ZM108.787 5.87848V6.87848H109.643L109.775 6.03286L108.787 5.87848ZM104.347 5.87848V4.87848H103.347V5.87848H104.347ZM104.347 7.89848H103.347V8.89848H104.347V7.89848ZM108.427 7.89848H107.427V11.4785H108.427H109.427V7.89848H108.427ZM108.427 11.4785V10.4785H104.347V11.4785V12.4785H108.427V11.4785ZM104.347 11.4785H103.347V17.0385H104.347H105.347V11.4785H104.347ZM104.347 17.0385V16.0385H99.5474V17.0385V18.0385H104.347V17.0385ZM99.5474 17.0385H100.547V2.03848H99.5474H98.5474V17.0385H99.5474ZM99.5474 2.03848V3.03848H109.387V2.03848V1.03848H99.5474V2.03848ZM109.387 2.03848L108.399 1.8841L107.799 5.72411L108.787 5.87848L109.775 6.03286L110.375 2.19286L109.387 2.03848ZM108.787 5.87848V4.87848H104.347V5.87848V6.87848H108.787V5.87848ZM104.347 5.87848H103.347V7.89848H104.347H105.347V5.87848H104.347ZM104.347 7.89848V8.89848H108.427V7.89848V6.89848H104.347V7.89848ZM110.456 6.01848L109.484 5.7851L109.482 5.79459L110.456 6.01848ZM111.636 3.55848L110.884 2.89993L110.876 2.909L111.636 3.55848ZM113.836 2.13848L113.516 1.1912L113.516 1.1912L113.836 2.13848ZM120.556 2.13848L120.232 3.08431L120.236 3.08576L120.556 2.13848ZM122.736 3.55848L121.976 4.20801L121.984 4.21699L122.736 3.55848ZM123.916 6.01848L122.941 6.23954L122.943 6.2472L122.945 6.25483L123.916 6.01848ZM123.956 12.9985L124.933 13.2126L124.934 13.2098L123.956 12.9985ZM122.816 15.4385L122.049 14.7967L122.042 14.8061L122.816 15.4385ZM120.636 16.9185L120.969 17.8615L120.977 17.8587L120.636 16.9185ZM113.736 16.9185L113.391 17.8571L113.4 17.8601L113.408 17.863L113.736 16.9185ZM111.556 15.4385L110.782 16.0709L110.79 16.0802L111.556 15.4385ZM110.436 12.9985L109.459 13.2098L109.46 13.2126L110.436 12.9985ZM115.276 13.2985H114.276V14.2985H115.276V13.2985ZM118.696 13.0785L119.16 13.9643L119.168 13.9604L119.175 13.9564L118.696 13.0785ZM119.136 5.77848H120.136V4.77848H119.136V5.77848ZM115.716 6.01848L116.164 6.91291L116.18 6.90493L116.195 6.89638L115.716 6.01848ZM110.116 9.55848H111.116C111.116 8.23574 111.226 7.13487 111.431 6.24238L110.456 6.01848L109.482 5.79459C109.234 6.87543 109.116 8.13456 109.116 9.55848H110.116ZM110.456 6.01848L111.429 6.25186C111.64 5.37179 111.973 4.7042 112.397 4.20797L111.636 3.55848L110.876 2.909C110.207 3.69277 109.753 4.66517 109.484 5.78511L110.456 6.01848ZM111.636 3.55848L112.389 4.21699C112.819 3.72568 113.396 3.34318 114.157 3.08576L113.836 2.13848L113.516 1.1912C112.464 1.54711 111.574 2.11129 110.884 2.89998L111.636 3.55848ZM113.836 2.13848L114.157 3.08576C114.929 2.82474 115.933 2.67848 117.196 2.67848V1.67848V0.678483C115.794 0.678483 114.558 0.838887 113.516 1.1912L113.836 2.13848ZM117.196 1.67848V2.67848C118.476 2.67848 119.477 2.82523 120.232 3.0843L120.556 2.13848L120.881 1.19266C119.849 0.838401 118.611 0.678483 117.196 0.678483V1.67848ZM120.556 2.13848L120.236 3.08576C120.996 3.34274 121.562 3.72308 121.976 4.20797L122.736 3.55848L123.497 2.909C122.818 2.11388 121.93 1.54756 120.877 1.1912L120.556 2.13848ZM122.736 3.55848L121.984 4.21699C122.414 4.70864 122.744 5.36845 122.941 6.23954L123.916 6.01848L124.892 5.79742C124.636 4.66851 124.179 3.68832 123.489 2.89998L122.736 3.55848ZM123.916 6.01848L122.945 6.25483C123.161 7.14245 123.276 8.23886 123.276 9.55848H124.276H125.276C125.276 8.13144 125.152 6.86785 124.888 5.78213L123.916 6.01848ZM124.276 9.55848H123.276C123.276 10.8137 123.174 11.8867 122.979 12.7871L123.956 12.9985L124.934 13.2098C125.166 12.1369 125.276 10.9166 125.276 9.55848H124.276ZM123.956 12.9985L122.98 12.7844C122.795 13.6271 122.477 14.2864 122.05 14.7968L122.816 15.4385L123.583 16.0802C124.25 15.2839 124.691 14.3166 124.933 13.2126L123.956 12.9985ZM122.816 15.4385L122.042 14.8061C121.64 15.2984 121.074 15.6965 120.296 15.9783L120.636 16.9185L120.977 17.8587C122.039 17.4738 122.926 16.8852 123.591 16.0709L122.816 15.4385ZM120.636 16.9185L120.304 15.9755C119.54 16.2451 118.515 16.3985 117.196 16.3985V17.3985V18.3985C118.651 18.3985 119.92 18.2319 120.969 17.8615L120.636 16.9185ZM117.196 17.3985V16.3985C115.878 16.3985 114.845 16.2453 114.065 15.974L113.736 16.9185L113.408 17.863C114.468 18.2317 115.741 18.3985 117.196 18.3985V17.3985ZM113.736 16.9185L114.082 15.9799C113.317 15.6987 112.743 15.2988 112.323 14.7968L111.556 15.4385L110.79 16.0802C111.463 16.8849 112.343 17.4716 113.391 17.8571L113.736 16.9185ZM111.556 15.4385L112.331 14.8061C111.914 14.2946 111.599 13.6321 111.413 12.7844L110.436 12.9985L109.46 13.2126C109.701 14.3116 110.133 15.2757 110.782 16.0709L111.556 15.4385ZM110.436 12.9985L111.414 12.7871C111.219 11.8867 111.116 10.8137 111.116 9.55848H110.116H109.116C109.116 10.9166 109.227 12.1369 109.459 13.2098L110.436 12.9985ZM115.276 7.05848H114.276V13.2985H115.276H116.276V7.05848H115.276ZM115.276 13.2985V14.2985H117.276V13.2985V12.2985H115.276V13.2985ZM117.276 13.2985V14.2985C117.963 14.2985 118.65 14.2318 119.16 13.9643L118.696 13.0785L118.232 12.1927C118.233 12.1923 118.215 12.2016 118.17 12.2148C118.125 12.2278 118.063 12.2422 117.978 12.2553C117.808 12.2817 117.577 12.2985 117.276 12.2985V13.2985ZM118.696 13.0785L119.175 13.9564C119.96 13.5285 120.136 12.6848 120.136 12.0185H119.136H118.136C118.136 12.1115 118.13 12.1813 118.122 12.2314C118.114 12.2816 118.105 12.3053 118.103 12.3101C118.101 12.3138 118.108 12.297 118.13 12.2714C118.153 12.2446 118.183 12.2194 118.218 12.2006L118.696 13.0785ZM119.136 12.0185H120.136V5.77848H119.136H118.136V12.0185H119.136ZM119.136 5.77848V4.77848H117.116V5.77848V6.77848H119.136V5.77848ZM117.116 5.77848V4.77848C116.436 4.77848 115.759 4.85612 115.238 5.14059L115.716 6.01848L116.195 6.89638C116.26 6.86084 116.517 6.77848 117.116 6.77848V5.77848ZM115.716 6.01848L115.269 5.12406C114.45 5.53387 114.276 6.4022 114.276 7.05848H115.276H116.276C116.276 6.96534 116.283 6.89645 116.291 6.84799C116.295 6.82417 116.299 6.80682 116.302 6.79508C116.304 6.78927 116.305 6.78503 116.306 6.78221C116.307 6.77939 116.307 6.77809 116.307 6.77812C116.307 6.77859 116.298 6.80098 116.27 6.8316C116.242 6.8637 116.205 6.89248 116.164 6.91291L115.716 6.01848ZM125.594 2.03848V1.03848H124.594V2.03848H125.594ZM130.394 2.03848H131.394V1.03848H130.394V2.03848ZM130.394 13.2985H129.394V14.2985H130.394V13.2985ZM133.334 13.0585L132.757 12.2415L132.745 12.2498L132.734 12.2585L133.334 13.0585ZM133.674 2.03848V1.03848H132.674V2.03848H133.674ZM138.474 2.03848H139.474V1.03848H138.474V2.03848ZM138.214 13.6985L137.233 13.5052L137.231 13.5124L137.23 13.5196L138.214 13.6985ZM137.254 15.8585L136.494 15.2077L136.493 15.2092L137.254 15.8585ZM135.294 17.0385L135.019 16.077L135.019 16.077L135.294 17.0385ZM126.794 15.8585L126.033 16.5078L126.042 16.5183L126.794 15.8585ZM125.834 13.7185L124.849 13.8948L124.851 13.9033L124.853 13.9117L125.834 13.7185ZM125.594 2.03848V3.03848H130.394V2.03848V1.03848H125.594V2.03848ZM130.394 2.03848H129.394V13.2985H130.394H131.394V2.03848H130.394ZM130.394 13.2985V14.2985H132.094V13.2985V12.2985H130.394V13.2985ZM132.094 13.2985V14.2985C132.438 14.2985 132.763 14.2765 133.054 14.2203C133.332 14.1664 133.656 14.0669 133.934 13.8585L133.334 13.0585L132.734 12.2585C132.798 12.21 132.809 12.2306 132.674 12.2567C132.551 12.2805 132.363 12.2985 132.094 12.2985V13.2985ZM133.334 13.0585L133.91 13.8755C134.569 13.4102 134.674 12.5964 134.674 12.0185H133.674H132.674C132.674 12.1173 132.668 12.1956 132.661 12.2557C132.653 12.3164 132.643 12.3518 132.638 12.3677C132.627 12.4007 132.646 12.3196 132.757 12.2415L133.334 13.0585ZM133.674 12.0185H134.674V2.03848H133.674H132.674V12.0185H133.674ZM133.674 2.03848V3.03848H138.474V2.03848V1.03848H133.674V2.03848ZM138.474 2.03848H137.474V10.4585H138.474H139.474V2.03848H138.474ZM138.474 10.4585H137.474C137.474 11.6986 137.389 12.7095 137.233 13.5052L138.214 13.6985L139.195 13.8917C139.385 12.9275 139.474 11.7783 139.474 10.4585H138.474ZM138.214 13.6985L137.23 13.5196C137.095 14.2622 136.837 14.8083 136.494 15.2077L137.254 15.8585L138.013 16.5093C138.631 15.7887 139.013 14.8947 139.198 13.8774L138.214 13.6985ZM137.254 15.8585L136.493 15.2092C136.179 15.5767 135.711 15.8792 135.019 16.077L135.294 17.0385L135.568 18C136.556 17.7177 137.395 17.2336 138.014 16.5077L137.254 15.8585ZM135.294 17.0385L135.019 16.077C134.302 16.2818 133.317 16.3985 132.034 16.3985V17.3985V18.3985C133.417 18.3985 134.605 18.2752 135.568 18L135.294 17.0385ZM132.034 17.3985V16.3985C130.75 16.3985 129.765 16.2818 129.048 16.077L128.774 17.0385L128.499 18C129.462 18.2752 130.651 18.3985 132.034 18.3985V17.3985ZM128.774 17.0385L129.048 16.077C128.355 15.879 127.875 15.5744 127.545 15.1987L126.794 15.8585L126.042 16.5183C126.672 17.2359 127.512 17.718 128.499 18L128.774 17.0385ZM126.794 15.8585L127.554 15.2092C127.223 14.8217 126.963 14.278 126.815 13.5252L125.834 13.7185L124.853 13.9117C125.051 14.919 125.431 15.8019 126.033 16.5077L126.794 15.8585ZM125.834 13.7185L126.818 13.5422C126.672 12.7253 126.594 11.7013 126.594 10.4585H125.594H124.594C124.594 11.7756 124.676 12.925 124.849 13.8948L125.834 13.7185ZM125.594 10.4585H126.594V2.03848H125.594H124.594V10.4585H125.594ZM150.984 12.0385L150.531 11.1473L149.632 11.6048L150.097 12.4998L150.984 12.0385ZM153.584 17.0385V18.0385H155.232L154.472 16.5771L153.584 17.0385ZM148.304 17.0385L147.389 17.4408L147.652 18.0385H148.304V17.0385ZM146.344 12.5785L147.26 12.1762L146.997 11.5785H146.344V12.5785ZM145.304 12.5785V11.5785H144.304V12.5785H145.304ZM145.304 17.0385V18.0385H146.304V17.0385H145.304ZM140.504 17.0385H139.504V18.0385H140.504V17.0385ZM140.504 2.03848V1.03848H139.504V2.03848H140.504ZM145.304 5.87848V4.87848H144.304V5.87848H145.304ZM145.304 8.87848H144.304V9.87848H145.304V8.87848ZM147.664 8.69848L147.254 7.78656L147.245 7.79057L147.236 7.79474L147.664 8.69848ZM147.664 6.05848L147.236 6.96222L147.245 6.9664L147.254 6.9704L147.664 6.05848ZM150.984 12.0385L150.097 12.4998L152.697 17.4998L153.584 17.0385L154.472 16.5771L151.872 11.5771L150.984 12.0385ZM153.584 17.0385V16.0385H148.304V17.0385V18.0385H153.584V17.0385ZM148.304 17.0385L149.22 16.6362L147.26 12.1762L146.344 12.5785L145.429 12.9808L147.389 17.4408L148.304 17.0385ZM146.344 12.5785V11.5785H145.304V12.5785V13.5785H146.344V12.5785ZM145.304 12.5785H144.304V17.0385H145.304H146.304V12.5785H145.304ZM145.304 17.0385V16.0385H140.504V17.0385V18.0385H145.304V17.0385ZM140.504 17.0385H141.504V2.03848H140.504H139.504V17.0385H140.504ZM140.504 2.03848V3.03848H148.064V2.03848V1.03848H140.504V2.03848ZM148.064 2.03848V3.03848C149.625 3.03848 150.614 3.43494 151.221 4.05377C151.831 4.67615 152.224 5.69452 152.224 7.29848H153.224H154.224C154.224 5.39578 153.758 3.78415 152.648 2.65319C151.535 1.51869 149.943 1.03848 148.064 1.03848V2.03848ZM153.224 7.29848H152.224C152.224 9.50672 151.551 10.6279 150.531 11.1473L150.984 12.0385L151.438 12.9297C153.404 11.929 154.224 9.89024 154.224 7.29848H153.224ZM146.404 5.87848V4.87848H145.304V5.87848V6.87848H146.404V5.87848ZM145.304 5.87848H144.304V8.87848H145.304H146.304V5.87848H145.304ZM145.304 8.87848V9.87848H146.404V8.87848V7.87848H145.304V8.87848ZM146.404 8.87848V9.87848C147.012 9.87848 147.625 9.82377 148.093 9.60222L147.664 8.69848L147.236 7.79474C147.239 7.79354 147.224 7.80067 147.185 7.81116C147.146 7.82146 147.092 7.833 147.018 7.84353C146.869 7.86486 146.667 7.87848 146.404 7.87848V8.87848ZM147.664 8.69848L148.075 9.6104C148.858 9.2581 149.064 8.49069 149.064 7.87848H148.064H147.064C147.064 7.99726 147.044 8.00854 147.066 7.96506C147.078 7.9399 147.101 7.90363 147.138 7.86671C147.176 7.82939 147.217 7.80304 147.254 7.78656L147.664 8.69848ZM148.064 7.87848H149.064V6.87848H148.064H147.064V7.87848H148.064ZM148.064 6.87848H149.064C149.064 6.26628 148.858 5.49886 148.075 5.14656L147.664 6.05848L147.254 6.9704C147.217 6.95393 147.176 6.92757 147.138 6.89026C147.101 6.85333 147.078 6.81706 147.066 6.79191C147.044 6.74842 147.064 6.7597 147.064 6.87848H148.064ZM147.664 6.05848L148.093 5.15474C147.625 4.9332 147.012 4.87848 146.404 4.87848V5.87848V6.87848C146.667 6.87848 146.869 6.89211 147.018 6.91343C147.092 6.92397 147.146 6.9355 147.185 6.94581C147.224 6.95629 147.239 6.96343 147.236 6.96222L147.664 6.05848ZM154.67 16.7785L153.684 16.6092L153.524 17.5466L154.452 17.7543L154.67 16.7785ZM155.35 12.8185L155.588 11.8473L154.546 11.5915L154.364 12.6492L155.35 12.8185ZM160.91 13.3385L160.939 14.3381L160.953 14.3376L160.967 14.3369L160.91 13.3385ZM162.15 13.2185L162.297 14.2077L163.15 14.0812V13.2185H162.15ZM162.15 12.0185H163.15V11.0983L162.233 11.0219L162.15 12.0185ZM159.99 11.8385L159.895 12.834L159.907 12.835L159.99 11.8385ZM157.55 11.3585L157.222 12.3032L157.222 12.3032L157.55 11.3585ZM155.97 10.4385L155.251 11.1335L155.263 11.1457L155.275 11.1575L155.97 10.4385ZM155.13 9.01848L154.169 9.2932L154.172 9.30702L154.177 9.32073L155.13 9.01848ZM155.21 4.49848L156.164 4.79783L156.166 4.79257L155.21 4.49848ZM156.23 2.83848L156.893 3.58707L156.899 3.58184L156.905 3.57651L156.23 2.83848ZM158.03 1.93848L157.804 0.964376L157.8 0.965297L158.03 1.93848ZM166.51 2.27848L167.498 2.43286L167.642 1.51492L166.737 1.30447L166.51 2.27848ZM165.91 6.11848L165.751 7.10581L166.743 7.26518L166.898 6.27286L165.91 6.11848ZM160.05 5.87848L159.923 4.88653L159.05 4.99803V5.87848H160.05ZM160.05 7.05848H159.05V7.96978L159.957 8.05418L160.05 7.05848ZM161.77 7.21848L161.871 6.22354L161.863 6.22278L161.77 7.21848ZM164.41 7.75848L164.073 8.69982L164.081 8.70266L164.088 8.70536L164.41 7.75848ZM166.11 8.71848L165.426 9.44802L165.432 9.45326L165.437 9.45842L166.11 8.71848ZM167.03 10.1385L166.077 10.4407L166.08 10.4512L166.084 10.4616L167.03 10.1385ZM166.91 14.5785L165.977 14.2195L165.977 14.2195L166.91 14.5785ZM165.95 16.1585L166.641 16.8811L166.644 16.8783L165.95 16.1585ZM164.81 16.8585L165.143 17.8015L165.155 17.7972L165.167 17.7925L164.81 16.8585ZM163.37 17.2185L163.526 18.2062L163.526 18.2062L163.37 17.2185ZM161.83 17.3585L161.804 16.3588L161.791 16.3592L161.778 16.3599L161.83 17.3585ZM157.45 17.2385L157.56 16.2446L157.56 16.2446L157.45 17.2385ZM154.67 16.7785L155.656 16.9477L156.336 12.9877L155.35 12.8185L154.364 12.6492L153.684 16.6092L154.67 16.7785ZM155.35 12.8185L155.112 13.7897C156.636 14.1639 158.045 14.3585 159.33 14.3585V13.3585V12.3585C158.242 12.3585 156.997 12.1931 155.588 11.8473L155.35 12.8185ZM159.33 13.3585V14.3585C159.937 14.3585 160.474 14.3517 160.939 14.3381L160.91 13.3385L160.881 12.3389C160.44 12.3519 159.923 12.3585 159.33 12.3585V13.3585ZM160.91 13.3385L160.967 14.3369C161.456 14.3089 161.9 14.2664 162.297 14.2077L162.15 13.2185L162.004 12.2293C161.68 12.2772 161.298 12.3147 160.853 12.3401L160.91 13.3385ZM162.15 13.2185H163.15V12.0185H162.15H161.15V13.2185H162.15ZM162.15 12.0185L162.233 11.0219L160.073 10.8419L159.99 11.8385L159.907 12.835L162.067 13.015L162.15 12.0185ZM159.99 11.8385L160.086 10.843C159.162 10.7545 158.432 10.6061 157.878 10.4137L157.55 11.3585L157.222 12.3032C157.975 12.5642 158.872 12.7358 159.895 12.8339L159.99 11.8385ZM157.55 11.3585L157.878 10.4137C157.329 10.2234 156.938 9.98364 156.665 9.71949L155.97 10.4385L155.275 11.1575C155.802 11.6667 156.464 12.0402 157.222 12.3032L157.55 11.3585ZM155.97 10.4385L156.689 9.74346C156.413 9.45802 156.211 9.12033 156.083 8.71624L155.13 9.01848L154.177 9.32073C154.395 10.01 154.754 10.6189 155.251 11.1335L155.97 10.4385ZM155.13 9.01848L156.092 8.74376C155.963 8.29412 155.89 7.73697 155.89 7.05848H154.89H153.89C153.89 7.87333 153.977 8.62284 154.169 9.2932L155.13 9.01848ZM154.89 7.05848H155.89C155.89 6.09269 155.991 5.34858 156.164 4.79782L155.21 4.49848L154.256 4.19914C154.002 5.00838 153.89 5.97094 153.89 7.05848H154.89ZM155.21 4.49848L156.166 4.79257C156.334 4.24558 156.585 3.8599 156.893 3.58707L156.23 2.83848L155.567 2.08989C154.942 2.64373 154.513 3.36472 154.254 4.2044L155.21 4.49848ZM156.23 2.83848L156.905 3.57651C157.224 3.28505 157.661 3.05331 158.26 2.91167L158.03 1.93848L157.8 0.965297C156.933 1.17032 156.17 1.53858 155.555 2.10045L156.23 2.83848ZM158.03 1.93848L158.256 2.91258C158.906 2.76168 159.732 2.67848 160.75 2.67848V1.67848V0.678483C159.635 0.678483 158.647 0.768615 157.804 0.964384L158.03 1.93848ZM160.75 1.67848V2.67848C162.808 2.67848 164.651 2.8728 166.284 3.25249L166.51 2.27848L166.737 1.30447C164.929 0.884169 162.932 0.678483 160.75 0.678483V1.67848ZM166.51 2.27848L165.522 2.1241L164.922 5.96411L165.91 6.11848L166.898 6.27286L167.498 2.43286L166.51 2.27848ZM165.91 6.11848L166.069 5.13115C164.554 4.88764 163.3 4.75848 162.33 4.75848V5.75848V6.75848C163.146 6.75848 164.28 6.86932 165.751 7.10581L165.91 6.11848ZM162.33 5.75848V4.75848C161.41 4.75848 160.605 4.79948 159.923 4.88653L160.05 5.87848L160.177 6.87043C160.748 6.79748 161.463 6.75848 162.33 6.75848V5.75848ZM160.05 5.87848H159.05V7.05848H160.05H161.05V5.87848H160.05ZM160.05 7.05848L159.957 8.05418L161.677 8.21418L161.77 7.21848L161.863 6.22278L160.143 6.06278L160.05 7.05848ZM161.77 7.21848L161.669 8.21339C162.672 8.31494 163.466 8.48252 164.073 8.69982L164.41 7.75848L164.748 6.81714C163.94 6.52778 162.975 6.33536 161.871 6.22357L161.77 7.21848ZM164.41 7.75848L164.088 8.70536C164.696 8.91175 165.128 9.16842 165.426 9.44802L166.11 8.71848L166.794 7.98895C166.239 7.46854 165.537 7.08522 164.732 6.8116L164.41 7.75848ZM166.11 8.71848L165.437 9.45842C165.752 9.74438 165.959 10.0685 166.077 10.4407L167.03 10.1385L167.983 9.83624C167.755 9.11513 167.348 8.49259 166.783 7.97854L166.11 8.71848ZM167.03 10.1385L166.084 10.4616C166.228 10.884 166.31 11.3981 166.31 12.0185H167.31H168.31C168.31 11.2256 168.206 10.4863 167.976 9.81534L167.03 10.1385ZM167.31 12.0185H166.31C166.31 12.9508 166.186 13.6741 165.977 14.2195L166.91 14.5785L167.843 14.9375C168.167 14.0962 168.31 13.1128 168.31 12.0185H167.31ZM166.91 14.5785L165.977 14.2195C165.741 14.8312 165.489 15.214 165.256 15.4386L165.95 16.1585L166.644 16.8783C167.158 16.3829 167.545 15.7125 167.843 14.9375L166.91 14.5785ZM165.95 16.1585L165.259 15.4358C165.061 15.6249 164.8 15.7918 164.453 15.9244L164.81 16.8585L165.167 17.7925C165.727 17.5785 166.226 17.2787 166.641 16.8811L165.95 16.1585ZM164.81 16.8585L164.477 15.9155C164.085 16.0539 163.665 16.1596 163.214 16.2307L163.37 17.2185L163.526 18.2062C164.089 18.1174 164.628 17.9831 165.143 17.8015L164.81 16.8585ZM163.37 17.2185L163.214 16.2307C162.751 16.3038 162.281 16.3466 161.804 16.3588L161.83 17.3585L161.856 18.3582C162.419 18.3437 162.976 18.2932 163.526 18.2062L163.37 17.2185ZM161.83 17.3585L161.778 16.3599C161.285 16.3858 160.842 16.3985 160.45 16.3985V17.3985V18.3985C160.884 18.3985 161.362 18.3845 161.883 18.3571L161.83 17.3585ZM160.45 17.3985V16.3985C159.444 16.3985 158.481 16.3469 157.56 16.2446L157.45 17.2385L157.34 18.2324C158.339 18.3434 159.376 18.3985 160.45 18.3985V17.3985ZM157.45 17.2385L157.56 16.2446C156.635 16.1417 155.744 15.9942 154.889 15.8026L154.67 16.7785L154.452 17.7543C155.382 17.9627 156.345 18.1219 157.34 18.2324L157.45 17.2385Z" fill="white" mask="url(#path-1-outside-1_0_1)"/>
<path d="M87.7 7.29825L87.7556 7.4711H92.6169L88.8308 10.2211L88.6843 10.3285L88.74 10.5014L90.1863 14.9506L86.4001 12.2006L86.2537 12.0941L86.1072 12.2006L82.3201 14.9506L83.7673 10.5014L83.823 10.3285L83.6765 10.2211L79.8904 7.4711H84.7517L84.8074 7.29825L86.2537 2.8461L87.7 7.29825Z" fill="#FFC400" stroke="white" stroke-width="0.5"/>
</svg>
