<svg width="21" height="21" viewBox="0 0 21 21" fill="none" xmlns="http://www.w3.org/2000/svg">
<path d="M16.5038 2.88824C17.5654 3.66124 18.4644 4.63576 19.1494 5.75618C19.8344 6.87659 20.292 8.12096 20.496 9.41822C20.7001 10.7155 20.6467 12.0402 20.3388 13.3169C20.0309 14.5935 19.4746 15.7969 18.7016 16.8586C17.9286 17.9202 16.9541 18.8191 15.8336 19.5041C14.7132 20.1891 13.4689 20.6467 12.1716 20.8508C10.8743 21.0549 9.54958 21.0015 8.27297 20.6936C6.99635 20.3857 5.79288 19.8293 4.73127 19.0563L10.6175 10.9723L16.5038 2.88824Z" fill="black"/>
<path d="M4.73128 19.0563C3.66967 18.2833 2.7707 17.3088 2.08571 16.1884C1.40072 15.068 0.943118 13.8236 0.739034 12.5264C0.53495 11.2291 0.58838 9.90433 0.896273 8.62772C1.20417 7.3511 1.76049 6.14763 2.53349 5.08602C3.30648 4.02441 4.28101 3.12544 5.40143 2.44045C6.52184 1.75546 7.76621 1.29786 9.06347 1.09378C10.3607 0.889695 11.6855 0.943126 12.9621 1.25102C14.2387 1.55891 15.4422 2.11524 16.5038 2.88824L10.6175 10.9723L4.73128 19.0563Z" fill="#E52828"/>
<path d="M10.6175 3.47229L12.3014 8.65466H17.7505L13.3421 11.8575L15.0259 17.0399L10.6175 13.837L6.20915 17.0399L7.893 11.8575L3.48461 8.65466H8.93368L10.6175 3.47229Z" fill="#FFC400" stroke="white" stroke-width="0.75"/>
</svg>
