<svg width="22" height="22" viewBox="-1 -1 12 12" fill="none" xmlns="http://www.w3.org/2000/svg">
<path d="M8.80494 4.8155L7.07458 4.2665L6.42844 2.45133C6.41623 2.41723 6.39159 2.38739 6.35813 2.3662C6.32467 2.345 6.28416 2.33356 6.24255 2.33356C6.20094 2.33356 6.16043 2.345 6.12697 2.3662C6.09351 2.38739 6.06887 2.41723 6.05666 2.45133L5.41071 4.2665L3.68016 4.8155C3.64288 4.8273 3.61072 4.84862 3.58801 4.87657C3.56529 4.90452 3.55312 4.93777 3.55312 4.97183C3.55312 5.00589 3.56529 5.03914 3.58801 5.06709C3.61072 5.09504 3.64288 5.11635 3.68016 5.12816L5.40974 5.677L6.05608 7.5475C6.06799 7.58198 6.09259 7.61223 6.12621 7.63374C6.15983 7.65525 6.20067 7.66686 6.24262 7.66685C6.28457 7.66683 6.3254 7.65518 6.35899 7.63364C6.39259 7.6121 6.41715 7.58182 6.42902 7.54733L7.07535 5.67683L8.80513 5.128C8.84251 5.11628 8.87478 5.09501 8.89757 5.06705C8.92036 5.03909 8.93257 5.0058 8.93255 4.97169C8.93253 4.93758 8.92028 4.9043 8.89745 4.87636C8.87462 4.84842 8.84233 4.82717 8.80494 4.8155Z" fill="#FFDD00" stroke="#a16207" stroke-width="0.5"/>
<path d="M4.91605 6.64899L4.4661 6.50633L4.2911 5.95633C4.28013 5.92088 4.2558 5.88954 4.2219 5.86717C4.18799 5.8448 4.14642 5.83266 4.10363 5.83264C4.06085 5.83262 4.01926 5.84472 3.98533 5.86706C3.9514 5.8894 3.92703 5.92072 3.91602 5.95616L3.74102 6.50616L3.29127 6.64883C3.25399 6.66063 3.22183 6.68195 3.19912 6.7099C3.1764 6.73785 3.16422 6.7711 3.16422 6.80516C3.16422 6.83922 3.1764 6.87247 3.19912 6.90042C3.22183 6.92837 3.25399 6.94968 3.29127 6.96149L3.73868 7.10366L3.91505 7.70733C3.9256 7.74336 3.94991 7.77533 3.98409 7.79818C4.01828 7.82102 4.06039 7.83341 4.10373 7.83339C4.14708 7.83337 4.18917 7.82094 4.22333 7.79807C4.25749 7.7752 4.28175 7.7432 4.29227 7.70716L4.46863 7.10349L4.91605 6.96133C4.95345 6.94967 4.98576 6.92843 5.00859 6.90049C5.03142 6.87256 5.04367 6.83927 5.04367 6.80516C5.04367 6.77105 5.03142 6.73776 5.00859 6.70982C4.98576 6.68189 4.95345 6.66065 4.91605 6.64899ZM4.07255 3.03849L3.61288 2.89266L3.44255 2.49849C3.42885 2.46647 3.40402 2.43882 3.3714 2.41929C3.33878 2.39976 3.29995 2.38928 3.26016 2.38928C3.22037 2.38928 3.18153 2.39976 3.14891 2.41929C3.11629 2.43882 3.09146 2.46647 3.07777 2.49849L2.90763 2.89266L2.44777 3.03849C2.41049 3.0503 2.37833 3.07161 2.35562 3.09957C2.3329 3.12752 2.32072 3.16076 2.32072 3.19483C2.32072 3.22889 2.3329 3.26213 2.35562 3.29009C2.37833 3.31804 2.41049 3.33935 2.44777 3.35116L2.90763 3.49699L3.07777 3.89116C3.09154 3.92311 3.11641 3.95068 3.14902 3.97015C3.18163 3.98962 3.22042 4.00005 3.26016 4.00005C3.2999 4.00005 3.33868 3.98962 3.37129 3.97015C3.4039 3.95068 3.42877 3.92311 3.44255 3.89116L3.61268 3.49699L4.07255 3.35116C4.10982 3.33935 4.14198 3.31804 4.1647 3.29009C4.18741 3.26213 4.19959 3.22889 4.19959 3.19483C4.19959 3.16076 4.18741 3.12752 4.1647 3.09957C4.14198 3.07161 4.10982 3.0503 4.07255 3.03849Z" fill="#FFDD00" stroke="#a16207" stroke-width="0.4"/>
<path d="M5.41447 9.19035C7.8742 9.19035 9.86819 7.22642 9.86819 4.80379C9.86819 2.38115 7.8742 0.417221 5.41447 0.417221C2.95475 0.417221 0.960754 2.38115 0.960754 4.80379C0.960754 7.22642 2.95475 9.19035 5.41447 9.19035Z" stroke="#F50000" stroke-width="0.512"/>
<path d="M8.38362 7.72816L2.44533 1.87941" stroke="#F50000" stroke-width="0.512"/>
</svg>
