<svg width="18" height="18" viewBox="0 0 6 6" fill="none" xmlns="http://www.w3.org/2000/svg">
<path d="M5.81399 5.27999C5.77799 5.26799 4.98599 5.06999 4.52999 4.90199C5.47199 4.68599 5.80799 3.82799 5.80799 3.17399C5.80799 2.08799 4.90799 1.20599 3.80399 1.20599C2.69999 1.20599 1.79999 2.08799 1.79999 3.17399C1.79999 3.44999 1.85999 3.71399 1.96199 3.94799V3.94199L2.29799 4.00199C2.40599 4.02599 2.68199 4.07999 3.11999 4.15199C3.61199 4.23599 3.93599 4.16999 4.20599 3.92399C4.37399 3.76799 4.47599 3.55799 4.48799 3.32999C4.49999 3.10199 4.42799 2.87999 4.27799 2.70599C4.03799 2.42999 3.61799 2.40599 3.34799 2.65199C3.13199 2.84999 3.10199 3.19199 3.28799 3.40799C3.43199 3.57599 3.69599 3.59399 3.85799 3.44999C3.91799 3.39599 3.95399 3.32399 3.95399 3.25199C3.95999 3.19199 3.94199 3.13199 3.90599 3.08999C3.87599 3.05399 3.82799 3.03599 3.77399 3.03599C3.73799 3.03599 3.68999 3.05399 3.65399 3.07799C3.64799 3.08399 3.64199 3.08399 3.64199 3.08999C3.63599 3.09599 3.62999 3.09599 3.62399 3.10199H3.61799C3.61199 3.10199 3.61199 3.10199 3.60599 3.10199C3.59999 3.10199 3.59399 3.10799 3.58799 3.10799C3.53999 3.10799 3.49799 3.06599 3.49799 3.01199C3.49799 2.95799 3.53999 2.91599 3.58799 2.91599C3.60599 2.91599 3.73199 2.87399 3.78599 2.87399C3.88799 2.86199 3.97199 2.89799 4.04399 2.96999C4.10999 3.04799 4.14599 3.14399 4.13999 3.25199C4.13399 3.37799 4.07999 3.49199 3.98399 3.57599C3.74999 3.78599 3.37799 3.76199 3.16199 3.52199C2.91599 3.23399 2.94599 2.77199 3.23999 2.50799C3.58199 2.19599 4.11599 2.22599 4.42199 2.57999C4.60199 2.78999 4.69199 3.05999 4.67999 3.33599C4.66199 3.61799 4.54199 3.86999 4.33799 4.05599C4.10999 4.26599 3.83999 4.36799 3.49799 4.36799C3.37799 4.36799 3.24599 4.35599 3.10799 4.33199C2.80799 4.27799 2.49599 4.22399 2.27999 4.18799C2.19599 4.16999 2.12399 4.15799 2.08199 4.15199C2.05799 4.14599 2.03999 4.14599 2.03399 4.14599C2.00399 4.13999 1.97399 4.13399 1.94399 4.12799C1.63799 4.05599 1.47599 3.33599 1.47599 3.26999V1.91999C1.47599 1.82399 1.40399 1.75199 1.30799 1.75199H1.27799C1.18799 1.75199 1.10999 1.82999 1.10999 1.91999V3.22799C1.03199 3.34199 0.899994 3.41399 0.755994 3.41399C0.617994 3.41399 0.491993 3.34799 0.413993 3.23999V1.91999C0.413993 1.82399 0.341994 1.75199 0.245994 1.75199H0.215994C0.125994 1.75199 0.0479926 1.82999 0.0479926 1.91999V1.94399V3.26999C0.0479926 3.32999 -0.108006 5.57999 1.78199 5.59799C2.83799 5.60999 5.83199 5.59799 5.83199 5.59799C5.91599 5.59799 5.98799 5.52599 5.98799 5.43599C5.98799 5.34599 5.89799 5.30399 5.81399 5.27999Z" fill="#B15E10" stroke="#B15E10" stroke-width="0.00064"/>
</svg>
