<svg width="22" height="22" viewBox="0 0 12 12" fill="none" xmlns="http://www.w3.org/2000/svg">
<path d="M5.64586 4.8968L4.19281 6.4396L5.64586 7.98239L7.09889 6.4396L5.64586 4.8968Z" fill="black"/>
<path fill-rule="evenodd" clip-rule="evenodd" d="M2.56348 3.53047C2.56348 2.92797 3.02349 2.43954 3.59094 2.43954H7.70078C8.26825 2.43954 8.72824 2.92797 8.72824 3.53047V9.34873C8.72824 9.95125 8.26825 10.4397 7.70078 10.4397H3.59094C3.02349 10.4397 2.56348 9.95125 2.56348 9.34873V3.53047ZM3.59094 3.16683H7.70078C7.88994 3.16683 8.04327 3.32964 8.04327 3.53047V9.34873C8.04327 9.54957 7.88994 9.71237 7.70078 9.71237H3.59094C3.40179 9.71237 3.24845 9.54957 3.24845 9.34873V3.53047C3.24845 3.32964 3.40179 3.16683 3.59094 3.16683Z" fill="black"/>
<path fill-rule="evenodd" clip-rule="evenodd" d="M10.6254 3.91575C10.6503 3.8695 10.712 3.85021 10.7628 3.87246L10.9646 3.96093C10.9646 3.96093 10.3893 5.21484 8.77849 5.27343C7.2444 5.23828 6.30792 4.13376 6.29838 3.01171C6.28884 1.88967 7.2444 0.773433 8.74014 0.761714C10.2103 0.738276 10.7742 1.8165 10.7742 1.8165C10.8017 1.86173 10.8239 1.85629 10.8239 1.80475V1.21867C10.824 1.19382 10.8348 1.17 10.8539 1.15243C10.8731 1.13486 10.8991 1.125 10.9262 1.125H11.0924C11.1489 1.125 11.1947 1.16718 11.1947 1.21893V2.36699C11.1947 2.37932 11.1921 2.39153 11.187 2.40293C11.1819 2.41432 11.1743 2.42468 11.1648 2.4334C11.1553 2.44213 11.1441 2.44905 11.1316 2.45378C11.1192 2.4585 11.1059 2.46093 11.0925 2.46093H9.80114C9.78773 2.46094 9.77444 2.45853 9.76204 2.45383C9.74965 2.44913 9.73838 2.44224 9.72889 2.43355C9.71939 2.42486 9.71186 2.41454 9.70672 2.40318C9.70158 2.39182 9.69893 2.37964 9.69892 2.36735V2.22639C9.69892 2.17471 9.74466 2.13217 9.80137 2.1314L10.453 2.1225C10.5096 2.12172 10.5354 2.08314 10.5088 2.03746C10.5088 2.03746 10.0441 1.05468 8.7529 1.0664C7.50006 1.07812 6.63711 2.04911 6.64352 3.01739C6.72023 4.31249 7.79409 4.94531 8.77847 4.92187C10.1719 4.92187 10.6254 3.91575 10.6254 3.91575H10.6254Z" fill="#3B82F6" stroke="#3B82F6" stroke-width="0.25"/>
</svg>
