<svg width="18" height="18" viewBox="0 0 8 8" fill="none" xmlns="http://www.w3.org/2000/svg">
<g clip-path="url(#clip0_4_25)">
<path d="M3.13332 2.51111C3.06666 2.42222 2.93332 2.42222 2.86666 2.51111L2.07499 3.56666C2.03055 3.62593 2.03055 3.7074 2.07499 3.76666L2.86666 4.82223C2.93332 4.9111 3.06666 4.9111 3.13332 4.82223L3.92499 3.76666C3.96942 3.7074 3.96942 3.62593 3.92499 3.56666L3.13332 2.51111Z" fill="#0F0F0F"/>
<path d="M1.36414 1.87955C1.34548 1.85156 1.34548 1.81509 1.36414 1.7871L1.59732 1.43733C1.6303 1.38785 1.70301 1.38785 1.73599 1.43733L1.96917 1.7871C1.98783 1.81509 1.98783 1.85156 1.96917 1.87955L1.73599 2.22932C1.70301 2.27879 1.6303 2.27879 1.59732 2.22932L1.36414 1.87955Z" fill="#0F0F0F"/>
<path d="M4.40266 5.10399C4.36969 5.05453 4.29696 5.05453 4.26399 5.10399L4.03079 5.45376C4.01216 5.48176 4.01216 5.51823 4.03079 5.54623L4.26399 5.89599C4.29696 5.94546 4.36969 5.94546 4.40266 5.89599L4.63582 5.54623C4.65449 5.51823 4.65449 5.48176 4.63582 5.45376L4.40266 5.10399Z" fill="#0F0F0F"/>
<path fill-rule="evenodd" clip-rule="evenodd" d="M0.333328 1.33333C0.333328 0.781045 0.781045 0.333328 1.33333 0.333328H4.66666C5.04409 0.333328 5.37269 0.542435 5.54293 0.851118L6.94633 1.22715C7.47979 1.3701 7.79636 1.91843 7.65343 2.4519L6.44559 6.95956C6.30266 7.49303 5.75433 7.8096 5.22086 7.66666L2.73282 7H1.33333C0.781045 7 0.333328 6.5523 0.333328 6V1.33333ZM5.66666 6V1.57446L6.77376 1.87111C6.95159 1.91875 7.05713 2.10153 7.00946 2.27935L5.80166 6.787C5.75399 6.96483 5.57123 7.07036 5.39339 7.0227L5.03993 6.928C5.40733 6.7801 5.66666 6.42033 5.66666 6ZM1.33333 0.999995C1.14923 0.999995 0.999995 1.14923 0.999995 1.33333V6C0.999995 6.1841 1.14923 6.33333 1.33333 6.33333H4.66666C4.85076 6.33333 4.99999 6.1841 4.99999 6V1.33333C4.99999 1.14923 4.85076 0.999995 4.66666 0.999995H1.33333Z" fill="#0F0F0F"/>
<g clip-path="url(#clip1_4_25)">
<path fill-rule="evenodd" clip-rule="evenodd" d="M5.73995 4.91575C5.76278 4.8695 5.81935 4.85021 5.86585 4.87246L6.05085 4.96093C6.05085 4.96093 5.5235 6.21484 4.04694 6.27343C2.64069 6.23828 1.78224 5.13376 1.7735 4.01171C1.76476 2.88967 2.64069 1.77343 4.01178 1.76171C5.35944 1.73828 5.87635 2.8165 5.87635 2.8165C5.90153 2.86173 5.92194 2.85629 5.92194 2.80475V2.21867C5.92196 2.19382 5.93184 2.17 5.94942 2.15243C5.967 2.13486 5.99084 2.125 6.01569 2.125H6.16803C6.21981 2.125 6.26178 2.16718 6.26178 2.21893V3.36699C6.26181 3.37932 6.25941 3.39153 6.25472 3.40293C6.25002 3.41432 6.24313 3.42468 6.23442 3.4334C6.22572 3.44213 6.21538 3.44905 6.20399 3.45378C6.19261 3.4585 6.18041 3.46093 6.16808 3.46093H4.98437C4.97207 3.46094 4.95989 3.45853 4.94853 3.45383C4.93716 3.44913 4.92683 3.44224 4.91813 3.43355C4.90943 3.42486 4.90253 3.41454 4.89781 3.40318C4.8931 3.39182 4.89067 3.37964 4.89067 3.36735V3.22639C4.89067 3.17471 4.9326 3.13217 4.98458 3.1314L5.58189 3.1225C5.63375 3.12172 5.65742 3.08314 5.63303 3.03746C5.63303 3.03746 5.20707 2.05468 4.02348 2.0664C2.87504 2.07812 2.084 3.04911 2.08989 4.01739C2.1602 5.31249 3.14457 5.94531 4.04692 5.92187C5.32426 5.92187 5.73992 4.91575 5.73992 4.91575H5.73995Z" fill="#38bdf8" stroke="#38bdf8" stroke-width="0.25"/>
</g>
</g>
<defs>
<clipPath id="clip0_4_25">
<rect width="8" height="8" fill="white"/>
</clipPath>
<clipPath id="clip1_4_25">
<rect width="6" height="6" fill="white" transform="translate(1 1)"/>
</clipPath>
</defs>
</svg>
