<svg width="18" height="18" viewBox="0 0 9 9" fill="none" xmlns="http://www.w3.org/2000/svg">
<g clip-path="url(#clip0_0_1)">
<path d="M4.04784 3.51111C3.98118 3.42222 3.84784 3.42222 3.78118 3.51111L2.98951 4.56666C2.94507 4.62593 2.94507 4.7074 2.98951 4.76666L3.78118 5.82223C3.84784 5.9111 3.98118 5.9111 4.04784 5.82223L4.83951 4.76666C4.88394 4.7074 4.88394 4.62593 4.83951 4.56666L4.04784 3.51111Z" fill="#0F0F0F"/>
<path d="M2.27866 2.87955C2.26 2.85156 2.26 2.81509 2.27866 2.7871L2.51184 2.43733C2.54482 2.38785 2.61753 2.38785 2.65051 2.43733L2.88369 2.7871C2.90235 2.81509 2.90235 2.85156 2.88369 2.87955L2.65051 3.22932C2.61753 3.27879 2.54482 3.27879 2.51184 3.22932L2.27866 2.87955Z" fill="#0F0F0F"/>
<path d="M5.31718 6.10399C5.28421 6.05453 5.21148 6.05453 5.17851 6.10399L4.94531 6.45376C4.92668 6.48176 4.92668 6.51823 4.94531 6.54623L5.17851 6.89599C5.21148 6.94546 5.28421 6.94546 5.31718 6.89599L5.55034 6.54623C5.56901 6.51823 5.56901 6.48176 5.55034 6.45376L5.31718 6.10399Z" fill="#0F0F0F"/>
<path fill-rule="evenodd" clip-rule="evenodd" d="M1.24785 2.33333C1.24785 1.78104 1.69557 1.33333 2.24785 1.33333H5.58118C5.95861 1.33333 6.28721 1.54243 6.45745 1.85112L7.86085 2.22715C8.39431 2.3701 8.71088 2.91843 8.56795 3.4519L7.36011 7.95956C7.21718 8.49303 6.66885 8.8096 6.13538 8.66666L3.64735 8H2.24785C1.69557 8 1.24785 7.5523 1.24785 7V2.33333ZM6.58118 7V2.57446L7.68828 2.87111C7.86611 2.91875 7.97165 3.10153 7.92398 3.27935L6.71618 7.787C6.66852 7.96483 6.48575 8.07036 6.30792 8.0227L5.95445 7.928C6.32185 7.7801 6.58118 7.42033 6.58118 7ZM2.24785 1.99999C2.06376 1.99999 1.91452 2.14923 1.91452 2.33333V7C1.91452 7.1841 2.06376 7.33333 2.24785 7.33333H5.58118C5.76528 7.33333 5.91451 7.1841 5.91451 7V2.33333C5.91451 2.14923 5.76528 1.99999 5.58118 1.99999H2.24785Z" fill="#0F0F0F"/>
</g>
<path fill-rule="evenodd" clip-rule="evenodd" d="M8.27816 2.54546H7.36907V1.63637C7.36907 1.38523 7.16555 1.18182 6.91453 1.18182C6.6635 1.18182 6.45998 1.38523 6.45998 1.63637V2.54546H5.55089C5.29987 2.54546 5.09634 2.74887 5.09634 3.00001C5.09634 3.25114 5.29987 3.45455 5.55089 3.45455H6.45998V4.36364C6.45998 4.61478 6.6635 4.81819 6.91453 4.81819C7.16555 4.81819 7.36907 4.61478 7.36907 4.36364V3.45455H8.27816C8.52919 3.45455 8.73271 3.25114 8.73271 3.00001C8.73271 2.74887 8.52919 2.54546 8.27816 2.54546Z" fill="#03E21D" stroke="black" stroke-width="0.1"/>
<defs>
<clipPath id="clip0_0_1">
<rect width="8" height="8" fill="white" transform="translate(0.91452 1)"/>
</clipPath>
</defs>
</svg>
