<svg width="22" height="22" viewBox="0 0 7 12" fill="none" xmlns="http://www.w3.org/2000/svg">
<path fill-rule="evenodd" clip-rule="evenodd" d="M0 4.53047C0 3.92797 0.460011 3.43954 1.02746 3.43954H5.1373C5.70477 3.43954 6.16476 3.92797 6.16476 4.53047V10.3487C6.16476 10.9512 5.70477 11.4397 5.1373 11.4397H1.02746C0.460011 11.4397 0 10.9512 0 10.3487V4.53047ZM1.02746 4.16683H5.1373C5.32646 4.16683 5.47979 4.32964 5.47979 4.53047V10.3487C5.47979 10.5496 5.32646 10.7124 5.1373 10.7124H1.02746C0.838312 10.7124 0.684974 10.5496 0.684974 10.3487V4.53047C0.684974 4.32964 0.838312 4.16683 1.02746 4.16683Z" fill="black"/>
<path d="M3.38652 5.86364H4.14646V8.39915C4.14646 8.63352 4.09379 8.83712 3.98844 9.00994C3.88427 9.18277 3.73927 9.31593 3.55342 9.40945C3.36758 9.50296 3.15155 9.54972 2.90534 9.54972C2.68635 9.54972 2.48749 9.51125 2.30875 9.4343C2.13119 9.35618 1.99033 9.23781 1.88616 9.07919C1.782 8.91939 1.73051 8.71875 1.73169 8.47727H2.49696C2.49933 8.57315 2.51886 8.65542 2.55555 8.72408C2.59343 8.79155 2.64492 8.84363 2.71003 8.88033C2.77632 8.91584 2.85444 8.93359 2.9444 8.93359C3.0391 8.93359 3.119 8.91347 3.1841 8.87322C3.25039 8.83179 3.3007 8.77143 3.33503 8.69212C3.36936 8.61281 3.38652 8.51515 3.38652 8.39915V5.86364Z" fill="#040000"/>
<path d="M5.66476 1.63077C5.66476 1.65704 5.65486 1.71977 5.56043 1.81895C5.46354 1.9207 5.2997 2.03508 5.05897 2.14202C4.57879 2.35532 3.88038 2.5 3.08238 2.5C2.28439 2.5 1.58598 2.35532 1.10579 2.14202C0.865062 2.03508 0.701221 1.9207 0.604337 1.81895C0.509901 1.71977 0.5 1.65704 0.5 1.63077C0.5 1.6045 0.509901 1.54177 0.604337 1.44259C0.701221 1.34084 0.865062 1.22645 1.10579 1.11952C1.58598 0.906215 2.28439 0.761536 3.08238 0.761536C3.88038 0.761536 4.57879 0.906215 5.05897 1.11952C5.2997 1.22645 5.46354 1.34084 5.56043 1.44259C5.65486 1.54177 5.66476 1.6045 5.66476 1.63077Z" stroke="#FFDD00"/>
<path d="M6.11476 1.63077C6.11476 1.80354 6.03615 1.97191 5.88632 2.12926C5.73626 2.28686 5.51674 2.43107 5.24166 2.55327C4.69162 2.7976 3.92824 2.95 3.08238 2.95C2.23652 2.95 1.47315 2.7976 0.923107 2.55327C0.648023 2.43107 0.428507 2.28686 0.27844 2.12926C0.128617 1.97191 0.05 1.80354 0.05 1.63077C0.05 1.45799 0.128617 1.28963 0.27844 1.13228C0.428507 0.974673 0.648023 0.830464 0.923107 0.708269C1.47315 0.463934 2.23652 0.311536 3.08238 0.311536C3.92824 0.311536 4.69162 0.463934 5.24166 0.708269C5.51674 0.830464 5.73626 0.974673 5.88632 1.13228C6.03615 1.28963 6.11476 1.45799 6.11476 1.63077Z" stroke="#100000" stroke-width="0.1"/>
<path d="M4.92798 1.63077C4.92798 1.64218 4.92285 1.65805 4.9032 1.67877C4.88333 1.69971 4.85155 1.72232 4.8063 1.74539C4.71596 1.79147 4.58197 1.83442 4.41224 1.87103C4.0736 1.94408 3.6034 1.98967 3.08241 1.98967C2.56141 1.98967 2.09121 1.94408 1.75257 1.87103C1.58284 1.83442 1.44885 1.79147 1.35851 1.74539C1.31326 1.72232 1.28148 1.69971 1.26162 1.67877C1.24196 1.65805 1.23683 1.64218 1.23683 1.63077C1.23683 1.61935 1.24196 1.60349 1.26162 1.58277C1.28148 1.56183 1.31326 1.53922 1.35851 1.51615C1.44885 1.47007 1.58284 1.42712 1.75257 1.3905C2.09121 1.31745 2.56141 1.27186 3.08241 1.27186C3.6034 1.27186 4.0736 1.31745 4.41224 1.3905C4.58197 1.42712 4.71596 1.47007 4.8063 1.51615C4.85155 1.53922 4.88333 1.56183 4.9032 1.58277C4.92285 1.60349 4.92798 1.61935 4.92798 1.63077Z" stroke="#100000" stroke-width="0.1"/>
</svg>
