<svg width="20" height="20" viewBox="0 0 10 10" fill="none" xmlns="http://www.w3.org/2000/svg">
<g clip-path="url(#clip0_59_2)">
<path d="M9.99895 5.33284C10.0236 4.80235 9.61299 4.35147 9.082 4.32688C8.82258 4.3145 8.58286 4.407 8.40225 4.56561C8.20717 4.35916 7.93549 4.22399 7.62883 4.20993C7.25057 4.19254 6.90786 4.36284 6.6886 4.63754C7.14967 5.06934 7.43325 5.68635 7.41676 6.36659C7.41626 6.38465 7.41366 6.40155 7.41266 6.41912C7.63852 6.82198 7.76518 7.28723 7.75329 7.78278C7.7451 8.12709 7.66997 8.45383 7.54391 8.75328C8.10118 8.77787 8.57405 8.34674 8.59981 7.78895C8.60083 7.77188 8.59981 7.755 8.59981 7.73793C9.06911 7.58971 9.42008 7.16276 9.44368 6.64194C9.45145 6.4835 9.4267 6.33061 9.37784 6.18907C9.72575 6.05743 9.98045 5.72901 9.99895 5.33284Z" fill="#EF4444"/>
<path d="M2.5295 6.25032C2.54566 5.57309 2.85499 4.97366 3.3312 4.56462C3.13003 4.29073 2.80941 4.10923 2.44327 4.09985C2.13661 4.09266 1.85589 4.20792 1.64726 4.40098C1.47796 4.2295 1.24532 4.12092 0.985754 4.11491C0.454152 4.10186 0.0129025 4.52278 0.000285298 5.05444C-0.00926548 5.45061 0.221867 5.79542 0.559895 5.95184C0.500988 6.08921 0.466027 6.23993 0.462102 6.39852C0.449797 6.91983 0.769602 7.37055 1.22757 7.55173C1.22632 7.56862 1.22423 7.58518 1.22374 7.60208C1.2106 8.16153 1.65261 8.62512 2.21148 8.63848C2.23849 8.63899 2.2655 8.638 2.29202 8.63649C2.17802 8.32866 2.1173 7.99624 2.12556 7.64841C2.13759 7.15288 2.28607 6.69395 2.53101 6.30231C2.53101 6.28479 2.52927 6.26788 2.5295 6.25032Z" fill="#EF4444"/>
<path d="M4.13291 7.27636C4.12187 7.72773 4.48207 7.97617 4.9331 7.98705C5.38466 7.99793 5.75572 7.76671 5.76652 7.3155C5.7773 6.86429 5.41761 6.61568 4.96607 6.6048C4.51502 6.59412 4.14345 6.82566 4.13291 7.27636Z" fill="#EF4444"/>
<path d="M6.16992 7.91762C5.67129 8.10333 5.41599 8.44294 4.92254 8.43124C4.42908 8.41987 4.19027 8.06786 3.70142 7.85891C3.21256 7.64946 2.83588 8.11973 3.09244 8.53614C3.40168 9.03737 3.79535 9.6271 4.85636 9.65219C5.91771 9.67795 6.41273 9.10881 6.74568 8.62313C7.02209 8.2196 6.66798 7.73192 6.16992 7.91762ZM6.28929 8.58399C6.26922 8.60723 5.78806 9.15565 4.93048 9.13557C4.07324 9.11501 3.61861 8.54383 3.59978 8.51958C3.56197 8.47137 3.57041 8.40129 3.6191 8.36364C3.6672 8.32618 3.7372 8.33436 3.77502 8.38338C3.77888 8.3879 4.18716 8.89532 4.93591 8.91338C5.68466 8.93079 6.11689 8.44346 6.12099 8.43893C6.16115 8.3921 6.23166 8.38741 6.27742 8.42756C6.32377 8.46721 6.32886 8.53713 6.28929 8.58399Z" fill="#EF4444"/>
<path d="M3.61219 6.94294C3.69039 6.94496 3.76143 6.69183 3.78534 6.35271C4.12495 6.34552 4.38118 6.28644 4.38303 6.20816C4.38487 6.13054 4.13192 6.05892 3.79303 6.03515C3.78534 5.69554 3.72612 5.43923 3.64791 5.43722C3.56995 5.43523 3.49868 5.68884 3.47475 6.02746C3.13514 6.03464 2.87916 6.09437 2.87733 6.17201C2.87559 6.25029 3.12844 6.32125 3.46705 6.3455C3.475 6.68513 3.53397 6.94093 3.61219 6.94294Z" fill="#EF4444"/>
<path d="M6.4833 6.09908C6.47561 5.75947 6.41639 5.50317 6.33867 5.50166C6.26047 5.49949 6.18895 5.75278 6.16527 6.0919C5.82566 6.09908 5.56945 6.15863 5.56785 6.23643C5.56584 6.31455 5.81897 6.38565 6.15758 6.40924C6.16527 6.74887 6.22449 7.00518 6.3027 7.00733C6.38043 7.00883 6.45193 6.75621 6.47609 6.41709C6.81522 6.40924 7.07143 6.35069 7.07354 6.27238C7.07504 6.19428 6.82193 6.12268 6.4833 6.09908Z" fill="#EF4444"/>
<path d="M6.42107 4.23L5.97488 1.89801C5.98568 1.89852 5.99496 1.90102 6.00574 1.90102C6.43496 1.90102 6.78277 1.5532 6.78277 1.12408C6.78277 0.694943 6.43496 0.346954 6.00574 0.346954C5.57664 0.346954 5.22847 0.694943 5.22847 1.12408C5.22847 1.35193 5.32861 1.55471 5.48504 1.69725L3.64691 4.07106L6.42107 4.23Z" fill="#EF4444"/>
</g>
<defs>
<clipPath id="clip0_59_2">
<rect width="10" height="10" fill="white"/>
</clipPath>
</defs>
</svg>
