<svg width="22" height="22" viewBox="0 0 12 12" fill="none" xmlns="http://www.w3.org/2000/svg">
<g clip-path="url(#clip0_0_1)">
<path d="M2.35361 3.64801L3.13761 4.41201L2.95361 5.48801L3.91761 4.98001L4.88161 5.48801L4.69761 4.41201L5.48161 3.64801L4.40161 3.49201L3.91761 2.51601L3.43361 3.49201L2.35361 3.64801Z" fill="#FFDD00" stroke="black" stroke-width="0.512" stroke-linecap="round" stroke-linejoin="round"/>
<path d="M2.35361 3.64801L3.13761 4.41201L2.95361 5.48801L3.91761 4.98001L4.88161 5.48801L4.69761 4.41201L5.48161 3.64801L4.40161 3.49201L3.91761 2.51601L3.43361 3.49201L2.35361 3.64801Z" fill="#FFDD00" stroke="#FFDD00" stroke-width="0.00064"/>
</g>
<path fill-rule="evenodd" clip-rule="evenodd" d="M0.835236 1.12281C0.835236 0.520316 1.29525 0.0318909 1.8627 0.0318909H5.97254C6.54001 0.0318909 7 0.520316 7 1.12281V6.94107C7 7.54359 6.54001 8.032 5.97254 8.032H1.8627C1.29525 8.032 0.835236 7.54359 0.835236 6.94107V1.12281ZM1.8627 0.759173H5.97254C6.16169 0.759173 6.31503 0.921983 6.31503 1.12281V6.94107C6.31503 7.14191 6.16169 7.30472 5.97254 7.30472H1.8627C1.67355 7.30472 1.52021 7.14191 1.52021 6.94107V1.12281C1.52021 0.921983 1.67355 0.759173 1.8627 0.759173Z" fill="black"/>
<defs>
<clipPath id="clip0_0_1">
<rect width="4" height="4" fill="white" transform="translate(1.9176 2)"/>
</clipPath>
</defs>
</svg>
