<svg width="11" height="15" viewBox="0 0 11 15" fill="none" xmlns="http://www.w3.org/2000/svg">
<path d="M3.86506 5.15341C4.31392 5.15341 4.74574 5.22869 5.16051 5.37926C5.57813 5.52983 5.95028 5.76989 6.27699 6.09943C6.60653 6.42898 6.86648 6.86648 7.05682 7.41193C7.25 7.95455 7.34801 8.62074 7.35085 9.41051C7.35085 10.152 7.26705 10.8139 7.09943 11.3963C6.93466 11.9759 6.69744 12.4688 6.38778 12.875C6.07813 13.2812 5.70455 13.5909 5.26705 13.804C4.82955 14.0142 4.34091 14.1193 3.80114 14.1193C3.21875 14.1193 2.70455 14.0071 2.25852 13.7827C1.8125 13.5554 1.45313 13.2472 1.1804 12.858C0.910511 12.4659 0.747159 12.0256 0.690341 11.5369H2.50994C2.58097 11.8551 2.73011 12.1023 2.95739 12.2784C3.18466 12.4517 3.46591 12.5384 3.80114 12.5384C4.36932 12.5384 4.80114 12.2912 5.09659 11.7969C5.39205 11.2997 5.54119 10.6193 5.54403 9.75568H5.48438C5.35369 10.0114 5.17756 10.2315 4.95597 10.4162C4.73438 10.598 4.48011 10.7386 4.19318 10.8381C3.90909 10.9375 3.60653 10.9872 3.28551 10.9872C2.77131 10.9872 2.3125 10.8665 1.90909 10.625C1.50568 10.3835 1.1875 10.0511 0.954545 9.62784C0.721591 9.20455 0.605114 8.72159 0.605114 8.17898C0.602273 7.59375 0.737216 7.07244 1.00994 6.61506C1.28267 6.15767 1.66335 5.79972 2.15199 5.54119C2.64347 5.27983 3.21449 5.15057 3.86506 5.15341ZM3.87784 6.60227C3.59091 6.60227 3.33523 6.67045 3.1108 6.80682C2.8892 6.94318 2.71307 7.12642 2.58239 7.35653C2.45455 7.58665 2.39205 7.84375 2.39489 8.12784C2.39489 8.41477 2.45739 8.6733 2.58239 8.90341C2.71023 9.13068 2.88352 9.3125 3.10227 9.44886C3.32386 9.58239 3.5767 9.64915 3.8608 9.64915C4.07386 9.64915 4.27131 9.60937 4.45312 9.52983C4.63494 9.45028 4.79261 9.34091 4.92614 9.2017C5.0625 9.05966 5.16903 8.89631 5.24574 8.71165C5.32244 8.52699 5.3608 8.33097 5.3608 8.12358C5.35795 7.84801 5.29261 7.59517 5.16477 7.36506C5.03693 7.13494 4.8608 6.95028 4.63636 6.81108C4.41193 6.67187 4.15909 6.60227 3.87784 6.60227Z" fill="black"/>
<g clip-path="url(#clip0_0_1)">
<path d="M7.14902 2.60248C7.12308 2.51008 7.04682 2.427 6.94571 2.38096C6.84457 2.3349 6.73187 2.33193 6.64514 2.37302L4.87968 3.20954L4.04539 1.30823C3.99162 1.18569 3.85419 1.09539 3.70975 1.08769C3.56531 1.07998 3.44952 1.15678 3.42696 1.27524L2.71985 4.98859C2.6479 5.3664 2.91074 5.78262 3.34661 5.98111L6.59276 7.45934C7.02863 7.65783 7.51515 7.58285 7.75291 7.28055L10.0898 4.30936C10.1644 4.21458 10.1463 4.07683 10.0456 3.97292C9.945 3.86903 9.78666 3.82464 9.65891 3.86452L7.67699 4.48338L7.14902 2.60248Z" fill="#FFDD00" stroke="black" stroke-width="0.504"/>
</g>
<defs>
<clipPath id="clip0_0_1">
<rect width="8" height="6.35735" fill="white" transform="translate(3.63469) rotate(24.4836)"/>
</clipPath>
</defs>
</svg>
