<svg width="18" height="18" viewBox="0 0 8 8" fill="none" xmlns="http://www.w3.org/2000/svg">
<g clip-path="url(#clip0_12_125)">
<path d="M6.93246 2.79704L4.46597 0.181888C4.19796 -0.063126 3.79461 -0.063126 3.51192 0.197217L1.04112 2.78136C0.275752 3.49108 0.114071 4.56981 0.629429 5.52952C1.02945 6.27456 1.59748 6.66658 2.3182 6.69426C2.62089 6.70593 2.8289 6.65025 3.00724 6.55192C3.00223 6.67393 2.97123 6.74426 2.8739 6.91461L2.64821 7.30931C2.56688 7.45164 2.56754 7.62833 2.64989 7.77001C2.73222 7.91201 2.88523 8.00002 3.04924 8.00002H4.95635C5.12035 8.00002 5.27336 7.91201 5.3557 7.77001C5.43803 7.62833 5.4387 7.45166 5.35702 7.30965L5.13168 6.91463C5.04301 6.75962 5.00935 6.68762 5.00035 6.58394C5.14536 6.66294 5.32337 6.70562 5.59005 6.69394C6.30577 6.66427 6.92013 6.28359 7.31982 5.62156C8.02418 4.45446 7.54282 3.36207 6.93246 2.79704Z" fill="black"/>
<path d="M4.00818 2.03061C4.1952 2.03061 4.37513 2.06198 4.54795 2.12472C4.72195 2.18745 4.87702 2.28748 5.01315 2.42479C5.15046 2.5621 5.25877 2.74439 5.33808 2.97166C5.41857 3.19775 5.45941 3.47533 5.46059 3.8044C5.46059 4.11335 5.42567 4.38916 5.35583 4.63182C5.28718 4.8733 5.18834 5.07867 5.05931 5.24794C4.93029 5.41721 4.77463 5.54624 4.59234 5.63501C4.41005 5.72261 4.20645 5.76641 3.98154 5.76641C3.73888 5.76641 3.52463 5.71965 3.33879 5.62614C3.15294 5.53144 3.0032 5.40301 2.88957 5.24084C2.77712 5.07749 2.70905 4.89401 2.68538 4.69041H3.44355C3.47314 4.82299 3.53528 4.92597 3.62998 4.99936C3.72468 5.07157 3.84186 5.10767 3.98154 5.10767C4.21828 5.10767 4.39821 5.00469 4.52132 4.79872C4.64442 4.59157 4.70657 4.30807 4.70775 3.94822H4.68289C4.62844 4.05476 4.55505 4.1465 4.46272 4.22344C4.37039 4.29919 4.26445 4.35779 4.14489 4.39922C4.02652 4.44065 3.90046 4.46136 3.7667 4.46136C3.55245 4.46136 3.36128 4.41106 3.19319 4.31044C3.0251 4.20982 2.89253 4.07133 2.79546 3.89496C2.6984 3.71858 2.64987 3.51735 2.64987 3.29126C2.64868 3.04742 2.70491 2.83021 2.81855 2.63963C2.93218 2.44905 3.0908 2.2999 3.2944 2.19219C3.49918 2.08329 3.73711 2.02943 4.00818 2.03061ZM4.0135 2.6343C3.89395 2.6343 3.78741 2.66271 3.6939 2.71953C3.60157 2.77635 3.52818 2.8527 3.47373 2.94858C3.42046 3.04446 3.39442 3.15159 3.3956 3.26996C3.3956 3.38951 3.42165 3.49723 3.47373 3.59311C3.527 3.68781 3.5992 3.76356 3.69035 3.82038C3.78268 3.87602 3.88803 3.90383 4.0064 3.90383C4.09518 3.90383 4.17745 3.88726 4.2532 3.85412C4.32896 3.82098 4.39466 3.7754 4.45029 3.7174C4.50711 3.65821 4.5515 3.59015 4.58346 3.51321C4.61542 3.43627 4.6314 3.35459 4.6314 3.26818C4.63022 3.15336 4.60299 3.04801 4.54972 2.95213C4.49646 2.85625 4.42307 2.77931 4.32955 2.72131C4.23604 2.6633 4.13069 2.6343 4.0135 2.6343Z" fill="white"/>
<g clip-path="url(#clip1_12_125)">
<path d="M5.327 1.23599L5.915 1.80899L5.777 2.61599L6.5 2.23499L7.223 2.61599L7.085 1.80899L7.673 1.23599L6.863 1.11899L6.5 0.386993L6.137 1.11899L5.327 1.23599Z" fill="#FFDD00" stroke="#a16207" stroke-width="0.7" stroke-linecap="round" stroke-linejoin="round"/>
<path d="M5.327 1.23599L5.915 1.80899L5.777 2.61599L6.5 2.23499L7.223 2.61599L7.085 1.80899L7.673 1.23599L6.863 1.11899L6.5 0.386993L6.137 1.11899L5.327 1.23599Z" fill="#FFDD00" stroke="#FFDD00" stroke-width="0.00064"/>
</g>
</g>
<defs>
<clipPath id="clip0_12_125">
<rect width="8" height="8" fill="white"/>
</clipPath>
<clipPath id="clip1_12_125">
<rect width="3" height="3" fill="white" transform="translate(5)"/>
</clipPath>
</defs>
</svg>
