<svg width="22" height="22" viewBox="0 0 12 12" fill="none" xmlns="http://www.w3.org/2000/svg">
<path d="M5.64586 4.8968L4.19281 6.4396L5.64586 7.98239L7.09889 6.4396L5.64586 4.8968Z" fill="black"/>
<path fill-rule="evenodd" clip-rule="evenodd" d="M2.56348 3.53047C2.56348 2.92797 3.02349 2.43954 3.59094 2.43954H7.70078C8.26825 2.43954 8.72824 2.92797 8.72824 3.53047V9.34873C8.72824 9.95125 8.26825 10.4397 7.70078 10.4397H3.59094C3.02349 10.4397 2.56348 9.95125 2.56348 9.34873V3.53047ZM3.59094 3.16683H7.70078C7.88994 3.16683 8.04327 3.32964 8.04327 3.53047V9.34873C8.04327 9.54957 7.88994 9.71237 7.70078 9.71237H3.59094C3.40179 9.71237 3.24845 9.54957 3.24845 9.34873V3.53047C3.24845 3.32964 3.40179 3.16683 3.59094 3.16683Z" fill="black"/>
<path d="M8.16683 4.64923C9.08639 4.64923 9.83183 3.9049 9.83183 2.98672C9.83183 2.06854 9.08639 1.3242 8.16683 1.3242C7.24728 1.3242 6.50183 2.06854 6.50183 2.98672C6.50183 3.9049 7.24728 4.64923 8.16683 4.64923Z" fill="#EF4444" stroke="#991B1B" stroke-width="0.7"/>
</svg>
