<svg width="22" height="22" viewBox="0 0 12 12" fill="none" xmlns="http://www.w3.org/2000/svg">
<g clip-path="url(#clip0_0_1)">
<path d="M5.525 4.51111C5.45 4.42222 5.3 4.42222 5.225 4.51111L4.33437 5.56666C4.28438 5.62593 4.28438 5.7074 4.33437 5.76666L5.225 6.82223C5.3 6.9111 5.45 6.9111 5.525 6.82223L6.41562 5.76666C6.46561 5.7074 6.46561 5.62593 6.41562 5.56666L5.525 4.51111Z" fill="#0F0F0F"/>
<path d="M3.53467 3.87955C3.51367 3.85156 3.51367 3.81509 3.53467 3.7871L3.79699 3.43733C3.8341 3.38785 3.91589 3.38785 3.953 3.43733L4.21533 3.7871C4.23632 3.81509 4.23632 3.85156 4.21533 3.87955L3.953 4.22932C3.91589 4.27879 3.8341 4.27879 3.79699 4.22932L3.53467 3.87955Z" fill="#0F0F0F"/>
<path d="M6.95299 7.10399C6.91591 7.05453 6.83408 7.05453 6.79699 7.10399L6.53464 7.45376C6.51368 7.48176 6.51368 7.51823 6.53464 7.54623L6.79699 7.89599C6.83408 7.94546 6.91591 7.94546 6.95299 7.89599L7.21531 7.54623C7.23631 7.51823 7.23631 7.48176 7.21531 7.45376L6.95299 7.10399Z" fill="#0F0F0F"/>
<path fill-rule="evenodd" clip-rule="evenodd" d="M2.375 3.33333C2.375 2.78104 2.87868 2.33333 3.5 2.33333H7.25C7.67461 2.33333 8.04429 2.54243 8.2358 2.85112L9.81463 3.22715C10.4148 3.3701 10.7709 3.91843 10.6101 4.4519L9.2513 8.95956C9.0905 9.49303 8.47362 9.8096 7.87347 9.66666L5.07443 9H3.5C2.87868 9 2.375 8.5523 2.375 8V3.33333ZM8.375 8V3.57446L9.62049 3.87111C9.82055 3.91875 9.93928 4.10153 9.88565 4.27935L8.52688 8.787C8.47325 8.96483 8.26764 9.07036 8.06758 9.0227L7.66992 8.928C8.08325 8.7801 8.375 8.42033 8.375 8ZM3.5 2.99999C3.29289 2.99999 3.125 3.14923 3.125 3.33333V8C3.125 8.1841 3.29289 8.33333 3.5 8.33333H7.25C7.45711 8.33333 7.625 8.1841 7.625 8V3.33333C7.625 3.14923 7.45711 2.99999 7.25 2.99999H3.5Z" fill="#0F0F0F"/>
</g>
<path d="M6 10.5C8.48528 10.5 10.5 8.48528 10.5 6C10.5 3.51472 8.48528 1.5 6 1.5C3.51472 1.5 1.5 3.51472 1.5 6C1.5 8.48528 3.51472 10.5 6 10.5Z" stroke="#F50000" stroke-width="0.512"/>
<path d="M9 9L3 3" stroke="#F50000" stroke-width="0.512"/>
<defs>
<clipPath id="clip0_0_1">
<rect width="9" height="8" fill="white" transform="translate(2 2)"/>
</clipPath>
</defs>
</svg>
