<svg width="22" height="22" viewBox="0 0 7 8" fill="none" xmlns="http://www.w3.org/2000/svg">
<g clip-path="url(#clip0_0_1)">
<path d="M6.45312 5.45605C6.35879 5.10332 6.0457 4.79707 5.56445 4.66172C5.20351 4.56055 4.55 4.4252 3.94297 4.58652C3.57519 4.68359 3.19512 4.91328 2.87519 5.1252V5.08008C2.87519 5.00215 2.87793 4.74238 2.8875 4.58242C2.89297 4.41152 2.89844 4.23652 2.90937 4.06289C2.91621 3.88652 2.92988 3.71289 2.94492 3.54062C2.95586 3.36562 2.98457 3.2043 3.00508 3.0416C3.03105 2.89258 3.0789 2.74766 3.13086 2.61367C3.30586 2.72441 3.55332 2.80508 3.8664 2.80508C4.28476 2.80508 4.48301 2.67656 4.5664 2.58223C4.60742 2.53574 4.67851 2.44824 4.61836 2.28281C4.56094 2.12832 4.4789 2.15566 4.4789 2.09688C4.4789 2.01895 4.50898 2.02168 4.62929 1.96016C4.90273 1.82207 4.87402 1.58555 4.87265 1.3627C4.87402 1.34629 4.87402 1.33125 4.87402 1.31484C4.87402 0.866406 4.43789 0.502734 3.90195 0.502734C3.89101 0.502734 3.88008 0.502734 3.86914 0.504102L3.8664 0.5C3.41797 0.5 3.13359 0.632617 2.96269 0.830859C2.95449 0.836328 2.94765 0.841797 2.93945 0.848633C2.91758 0.870508 2.89433 0.892383 2.86972 0.916992C2.77812 1.00996 2.64004 1.15898 2.58535 1.25332C2.50605 1.3627 2.42402 1.48438 2.34746 1.61152C2.25996 1.74004 2.18613 1.87813 2.09453 2.02168C2.00429 2.16523 1.92637 2.32109 1.83203 2.47832C1.66113 2.79687 1.46699 3.13457 1.30019 3.48594C1.13476 3.8373 0.973435 4.19551 0.850389 4.54688C0.788865 4.72324 0.735545 4.89687 0.690428 5.06504C0.648045 5.2373 0.60156 5.39453 0.58242 5.55586C0.579685 5.57637 0.576951 5.59687 0.575584 5.61738C0.468943 6.29961 0.458006 7.07344 0.552342 7.19238C0.66035 7.33047 0.952928 7.37148 1.2291 7.35234C1.41777 7.34004 2.29414 7.4959 3.15 7.4959C3.19922 7.49727 3.24844 7.49863 3.29902 7.49863C3.9539 7.50137 4.67851 7.45352 5.10644 7.26348C6.35879 6.70977 6.6541 6.21074 6.45312 5.45605Z" fill="#DEA47C" stroke="#B37B56" stroke-width="0.311111"/>
<path d="M4.13437 6.43495C4.10566 6.43495 4.07695 6.43359 4.04687 6.43222C3.66543 6.40898 3.31679 6.23945 3.06386 5.9537C3.01738 5.90175 3.02148 5.82109 3.0748 5.7746C3.12675 5.72812 3.20742 5.73222 3.2539 5.78554C3.46171 6.0207 3.74882 6.16015 4.06191 6.17792C4.375 6.19706 4.67714 6.09179 4.91093 5.88398C4.96289 5.83749 5.04355 5.84159 5.09003 5.89491C5.13652 5.94687 5.13242 6.02753 5.0791 6.07402C4.8166 6.30781 4.48437 6.43495 4.13437 6.43495Z" fill="#B37B56"/>
</g>
<path d="M4.83958 2.88542C4.79831 2.88596 4.75888 2.9026 4.72969 2.93178C4.70052 2.96097 4.68388 3.0004 4.68333 3.04167V3.54792L4.50833 3.37292C4.32729 3.19034 4.10258 3.05708 3.85556 2.98578C3.60852 2.91448 3.34735 2.90751 3.09688 2.96554C2.84639 3.02357 2.6149 3.14467 2.42438 3.31733C2.23386 3.49 2.09065 3.7085 2.00834 3.95209C1.99976 3.97194 1.99547 3.99338 1.99572 4.01501C1.99598 4.03664 2.00078 4.05797 2.00982 4.07761C2.01886 4.09726 2.03193 4.1148 2.04819 4.12905C2.06444 4.14332 2.08351 4.15401 2.10417 4.16042C2.1214 4.16342 2.13902 4.16342 2.15625 4.16042C2.18885 4.16009 2.22054 4.14971 2.24702 4.13069C2.27349 4.11167 2.29345 4.08496 2.30417 4.05417C2.36237 3.88128 2.4601 3.72434 2.58959 3.59584C2.81449 3.37181 3.11902 3.24602 3.43646 3.24602C3.75392 3.24602 4.05844 3.37181 4.28333 3.59584L4.45833 3.77084H3.95625C3.91481 3.77084 3.87506 3.7873 3.84577 3.8166C3.81646 3.84591 3.8 3.88565 3.8 3.92709C3.8 3.96853 3.81646 4.00827 3.84577 4.03757C3.87506 4.06688 3.91481 4.08334 3.95625 4.08334H4.83958C4.86019 4.08361 4.88063 4.07977 4.89971 4.07202C4.91879 4.06426 4.93613 4.05276 4.95069 4.0382C4.96527 4.02363 4.97677 4.0063 4.98452 3.98721C4.99227 3.96813 4.99613 3.94768 4.99583 3.92709V3.04167C4.99583 3.00023 4.97938 2.96049 4.95006 2.93119C4.92077 2.90188 4.88102 2.88542 4.83958 2.88542Z" fill="#1d4ed8" />
<path d="M4.89166 4.85001C4.8716 4.84214 4.85016 4.83843 4.82862 4.83912C4.80708 4.83982 4.78591 4.84491 4.76639 4.85407C4.74689 4.86324 4.72947 4.8763 4.71518 4.89243C4.70089 4.90857 4.69006 4.92745 4.68333 4.94793C4.62512 5.12082 4.52741 5.27776 4.39791 5.40626C4.17302 5.6303 3.8685 5.75607 3.55104 5.75607C3.2336 5.75607 2.92907 5.6303 2.70416 5.40626L2.52916 5.23126H3.04375C3.08518 5.23126 3.12493 5.2148 3.15422 5.18549C3.18354 5.1562 3.2 5.11645 3.2 5.07501C3.2 5.03357 3.18354 4.99382 3.15422 4.96453C3.12493 4.93522 3.08518 4.91876 3.04375 4.91876H2.16041C2.13982 4.91847 2.11937 4.92232 2.10029 4.93007C2.08121 4.93784 2.06387 4.94934 2.04931 4.96391C2.03474 4.97847 2.02324 4.9958 2.01549 5.01489C2.00774 5.03397 2.00389 5.05441 2.00416 5.07501V5.95834C2.00416 5.99978 2.02063 6.03953 2.04993 6.06882C2.07923 6.09814 2.11897 6.11459 2.16041 6.11459C2.20186 6.11459 2.2416 6.09814 2.2709 6.06882C2.3002 6.03953 2.31666 5.99978 2.31666 5.95834V5.45209L2.49166 5.62709C2.67271 5.80968 2.89741 5.94293 3.14445 6.01424C3.39147 6.08553 3.65264 6.09249 3.90312 6.03447C4.15362 5.97645 4.3851 5.85534 4.57562 5.68268C4.76614 5.51001 4.90935 5.29151 4.99166 5.04793C4.99845 5.02839 5.00127 5.00768 4.99989 4.98703C4.99852 4.96639 4.993 4.94622 4.98366 4.92776C4.97433 4.90928 4.96137 4.89289 4.94556 4.87953C4.92977 4.86618 4.91143 4.85614 4.89166 4.85001Z" fill="#F50000" />
<defs>
<clipPath id="clip0_0_1">
<rect width="7" height="7" fill="white" transform="translate(0 0.5)"/>
</clipPath>
</defs>
</svg>
