<svg width="22" height="22" viewBox="0 0 58 52" fill="none" xmlns="http://www.w3.org/2000/svg">
<path d="M7.92229 19.3676L28.3679 36.6407C28.7146 36.9336 29.2746 36.9336 29.6213 36.6407L50.0758 19.3676C50.4136 19.0672 50.4047 18.5941 50.058 18.3087C49.7114 18.0308 49.1691 18.0308 48.8224 18.3087L28.999 35.0485L9.18453 18.3087C8.82892 18.0234 8.26889 18.0308 7.93112 18.3237C7.59344 18.6167 7.59344 19.0748 7.92229 19.3676Z" fill="#ef4444" stroke="#991b1b" stroke-width="7.15294" stroke-linecap="round" stroke-linejoin="round"/>
<path d="M7.92229 19.3676L28.3679 36.6407C28.7146 36.9336 29.2746 36.9336 29.6213 36.6407L50.0758 19.3676C50.4136 19.0672 50.4047 18.5941 50.058 18.3087C49.7114 18.0308 49.1691 18.0308 48.8224 18.3087L28.999 35.0485L9.18453 18.3087C8.82892 18.0234 8.26889 18.0308 7.93112 18.3237C7.59344 18.6167 7.59344 19.0748 7.92229 19.3676Z" fill="#ef4444" stroke="#ef4444" stroke-width="3.48235"/>
<path d="M15.1535 10.3679L28.5489 21.2958C28.776 21.4811 29.1429 21.4811 29.3701 21.2958L42.7713 10.3679C42.9926 10.1779 42.9868 9.87853 42.7597 9.69799C42.5325 9.52218 42.1773 9.52218 41.9501 9.69799L28.9624 20.2885L15.9805 9.69799C15.7475 9.51746 15.3806 9.52219 15.1593 9.70748C14.938 9.89283 14.938 10.1826 15.1535 10.3679Z" fill="#ef4444" stroke="#991b1b" stroke-width="7.15294" stroke-linecap="round" stroke-linejoin="round"/>
<path d="M15.1535 10.3679L28.5489 21.2958C28.776 21.4811 29.1429 21.4811 29.3701 21.2958L42.7713 10.3679C42.9926 10.1779 42.9868 9.87853 42.7597 9.69799C42.5325 9.52218 42.1773 9.52218 41.9501 9.69799L28.9624 20.2885L15.9805 9.69799C15.7475 9.51746 15.3806 9.52219 15.1593 9.70748C14.938 9.89283 14.938 10.1826 15.1535 10.3679Z" fill="#ef4444" stroke="#ef4444" stroke-width="3.48235"/>
</svg>
