<svg width="22" height="22" viewBox="0 0 12 12" fill="none" xmlns="http://www.w3.org/2000/svg">
<path d="M6.24223 4.24687C6.18807 4.17766 6.09722 4.13612 6 4.13612C5.90276 4.13612 5.81194 4.17766 5.75777 4.24687L4.65525 5.65592L3.30142 4.34916C3.21416 4.26494 3.07198 4.24113 2.95417 4.29101C2.83635 4.34088 2.77199 4.45213 2.79699 4.56271L3.58047 8.02877C3.66018 8.38142 4.02041 8.63612 4.43949 8.63612H7.56051C7.97958 8.63612 8.33981 8.38142 8.41953 8.02877L9.203 4.56271C9.228 4.45213 9.16365 4.34088 9.04582 4.29101C8.92802 4.24113 8.78583 4.26494 8.69856 4.34916L7.34473 5.65592L6.24223 4.24687Z" fill="#FFDD00" stroke="black" stroke-width="0.504"/>
<path d="M6 10.5C8.48528 10.5 10.5 8.48528 10.5 6C10.5 3.51472 8.48528 1.5 6 1.5C3.51472 1.5 1.5 3.51472 1.5 6C1.5 8.48528 3.51472 10.5 6 10.5Z" stroke="#F50000" stroke-width="0.512"/>
<path d="M9 9L3 3" stroke="#F50000" stroke-width="0.512"/>
</svg>
