<svg width="22" height="22" viewBox="-1 -1 12 12" fill="none" xmlns="http://www.w3.org/2000/svg">
<g clip-path="url(#clip0_0_1)">
<path d="M1.87199 4.296L3.43999 5.824L3.07199 7.976L4.99999 6.96L6.92799 7.976L6.55999 5.824L8.12799 4.296L5.96799 3.984L4.99999 2.032L4.03199 3.984L1.87199 4.296Z" fill="#FFDD00" stroke="#a16207" stroke-width="0.9" stroke-linecap="round" stroke-linejoin="round"/>
<path d="M1.87199 4.296L3.43999 5.824L3.07199 7.976L4.99999 6.96L6.92799 7.976L6.55999 5.824L8.12799 4.296L5.96799 3.984L4.99999 2.032L4.03199 3.984L1.87199 4.296Z" fill="#FFDD00" stroke="#FFDD00" stroke-width="0.00064"/>
</g>
<path d="M5 9.71989C7.45972 9.71989 9.45372 7.75596 9.45372 5.33333C9.45372 2.91069 7.45972 0.946762 5 0.946762C2.54028 0.946762 0.54628 2.91069 0.54628 5.33333C0.54628 7.75596 2.54028 9.71989 5 9.71989Z" stroke="#F50000" stroke-width="0.512"/>
<path d="M7.96915 8.25771L2.03085 2.40895" stroke="#F50000" stroke-width="0.512"/>
<defs>
<clipPath id="clip0_0_1">
<rect width="8" height="8" fill="white" transform="translate(1 1)"/>
</clipPath>
</defs>
</svg>
