<svg width="18" height="18" viewBox="0 0 8 8" fill="none" xmlns="http://www.w3.org/2000/svg">
<g clip-path="url(#clip0_0_1)">
<path d="M7.66592 4.66502C7.6556 3.90985 7.18735 3.20699 6.47217 2.87439H6.47184C6.27655 2.78341 6.07592 2.72675 5.87163 2.70375C5.96794 2.44748 6.01161 2.17153 5.99694 1.89125C5.94228 0.870799 5.09945 0.0406252 4.07799 0.00197683C3.53277 -0.0223463 3.00888 0.178613 2.61361 0.559191C2.21802 0.939785 2.00041 1.45134 2.00041 1.9999C2.00041 2.24185 2.0444 2.48013 2.12871 2.70375C1.92408 2.72642 1.72347 2.78341 1.52784 2.87439C0.812328 3.20698 0.34408 3.90983 0.334082 4.66502C0.327083 5.20424 0.531713 5.71281 0.910292 6.0964C1.28921 6.47999 1.79444 6.69128 2.33367 6.69128C2.60462 6.69128 2.82024 6.5923 3.00021 6.45865V6.91823L2.79458 7.30948C2.71327 7.45212 2.71392 7.62841 2.79625 7.77006C2.87823 7.9117 3.0312 8.00001 3.1955 8.00001H4.80449C4.96846 8.00001 5.12143 7.9117 5.20341 7.77006C5.28572 7.62841 5.28639 7.45212 5.21074 7.32015L4.99978 6.9179V6.45867C5.17974 6.59231 5.39503 6.69129 5.66632 6.69129C6.20521 6.69129 6.71043 6.48001 7.08935 6.09641C7.46796 5.71281 7.67258 5.20424 7.66592 4.66502ZM3.37913 7.62974L3.38446 7.61974C3.3828 7.62307 3.3808 7.62674 3.37913 7.62974Z" fill="black"/>
</g>
<path d="M2.60047 5.625V5.07102L3.89486 3.87251C4.00494 3.76598 4.09727 3.6701 4.17185 3.58487C4.2476 3.49964 4.30501 3.41619 4.34408 3.33452C4.38314 3.25166 4.40267 3.16229 4.40267 3.06641C4.40267 2.95987 4.37841 2.86813 4.32987 2.79119C4.28134 2.71307 4.21505 2.65329 4.13101 2.61186C4.04697 2.56925 3.95168 2.54794 3.84514 2.54794C3.73387 2.54794 3.63681 2.57043 3.55395 2.61541C3.47109 2.66039 3.40717 2.72491 3.36219 2.80895C3.31721 2.89299 3.29472 2.99302 3.29472 3.10902H2.56496C2.56496 2.87109 2.61882 2.66454 2.72653 2.48935C2.83425 2.31416 2.98518 2.17862 3.1793 2.08274C3.37343 1.98686 3.59716 1.93892 3.85047 1.93892C4.11089 1.93892 4.33757 1.98509 4.53051 2.07741C4.72464 2.16856 4.87556 2.29522 4.98328 2.45739C5.091 2.61955 5.14486 2.8054 5.14486 3.01491C5.14486 3.15223 5.11763 3.28776 5.06318 3.42152C5.00992 3.55528 4.91463 3.70384 4.77732 3.86719C4.64001 4.02936 4.44647 4.22408 4.19671 4.45135L3.66581 4.97159V4.99645H5.1928V5.625H2.60047Z" fill="white"/>
<defs>
<clipPath id="clip0_0_1">
<rect width="8" height="8" fill="white"/>
</clipPath>
</defs>
</svg>
